<?xml version="1.0" encoding="UTF-8" standalone="no"?>
<svg
   xmlns:dc="http://purl.org/dc/elements/1.1/"
   xmlns:cc="http://creativecommons.org/ns#"
   xmlns:rdf="http://www.w3.org/1999/02/22-rdf-syntax-ns#"
   xmlns:svg="http://www.w3.org/2000/svg"
   xmlns="http://www.w3.org/2000/svg"
   xmlns:sodipodi="http://sodipodi.sourceforge.net/DTD/sodipodi-0.dtd"
   xmlns:inkscape="http://www.inkscape.org/namespaces/inkscape"
   width="244.14903mm"
   height="74.979408mm"
   viewBox="0 0 244.14903 74.979409"
   version="1.1"
   id="svg8"
   inkscape:version="1.0.2-2 (e86c870879, 2021-01-15)"
   sodipodi:docname="tab_SIM1.svg">
  <defs
     id="defs2" />
  <sodipodi:namedview
     id="base"
     pagecolor="#ffffff"
     bordercolor="#666666"
     borderopacity="1.0"
     inkscape:pageopacity="0.0"
     inkscape:pageshadow="2"
     inkscape:zoom="0.68170455"
     inkscape:cx="541.01053"
     inkscape:cy="351.39885"
     inkscape:document-units="mm"
     inkscape:current-layer="g853"
     inkscape:document-rotation="0"
     showgrid="false"
     inkscape:window-width="1920"
     inkscape:window-height="1027"
     inkscape:window-x="-8"
     inkscape:window-y="-8"
     inkscape:window-maximized="1" />
  <metadata
     id="metadata5">
    <rdf:RDF>
      <cc:Work
         rdf:about="">
        <dc:format>image/svg+xml</dc:format>
        <dc:type
           rdf:resource="http://purl.org/dc/dcmitype/StillImage" />
        <dc:title></dc:title>
      </cc:Work>
    </rdf:RDF>
  </metadata>
  <g
     inkscape:label="Capa 1"
     inkscape:groupmode="layer"
     id="layer1"
     transform="translate(24.789035,-37.344612)">
    <g
       id="g843"
       transform="matrix(0,0.35277777,0.35277777,0,328.00014,145.4487)">
      <g
         id="g853"
         transform="rotate(90,404.97223,-1061.6431)">
        <text
           transform="scale(1,-1)"
           style="font-style:italic;font-variant:normal;font-size:11.9552px;font-family:'Times New Roman';-inkscape-font-specification:TimesNewRomanPS-ItalicMT;writing-mode:lr-tb;fill:#000000;fill-opacity:1;fill-rule:nonzero;stroke:none"
           id="text865"
           x="588.74902"
           y="358.535"><tspan
             x="588.74902 596.05365 601.36176 606.01233 611.98993 615.31348 618.63702 624.61462 630.59222 636.56982 644.20917 650.18677 655.49487 661.80725 667.11536 672.42346 678.40106 683.70917 688.35974 691.68329 700.31494 705.62305 711.60065 714.92419 723.89056 729.86816 733.19171 738.49982 744.47742 747.80096 753.77856 758.42914 761.75269 770.71912 776.69672 782.67432 787.32489 796.29126 804.92291 808.24646 812.89703 818.87463 824.85223 829.50281 832.82635 836.1499 839.47345 844.78156 853.74799 858.39856 864.37616 867.69971 873.00781 876.33136 882.30896 888.28656 894.26416 901.9035 907.8811 916.17804 921.48615 927.46375 933.44135 942.40771 952.70117 960.99805 969.6297 972.95325 977.60382 983.58142 989.55902 994.20959 997.53308 1000.8567 1004.1802 1009.4883 1018.4547 1024.4324 1032.7292 1038.7069 1042.0304 1048.0081 1053.9856 1058.6362 1061.9597 1070.9261 1078.2307 1086.2048"
             y="358.535"
             sodipodi:role="line"
             id="tspan863">ResultadosdelexperimentoaleatorioparaDispositivosujetadordecopaAyDispositivodebiopsiaFNA</tspan></text>
        <g
           id="g867">
          <path
             d="m 466.583,-364.309 h 692.076"
             style="fill:none;stroke:#000000;stroke-width:0.9564;stroke-linecap:butt;stroke-linejoin:miter;stroke-miterlimit:10;stroke-dasharray:none;stroke-opacity:1"
             id="path869" />
        </g>
        <text
           transform="matrix(1,0,0,-1,478.951,-385.472)"
           style="font-variant:normal;font-weight:normal;font-size:11.9552px;font-family:'Times New Roman';-inkscape-font-specification:TimesNewRomanPSMT;writing-mode:lr-tb;fill:#000000;fill-opacity:1;fill-rule:nonzero;stroke:none"
           id="text873"><tspan
             x="0"
             y="0"
             id="tspan871">N</tspan></text>
        <text
           transform="matrix(1,0,0,-1,487.584,-381.133)"
           style="font-style:italic;font-variant:normal;font-weight:normal;font-size:7.9701px;font-family:CMSY8;-inkscape-font-specification:CMSY8;writing-mode:lr-tb;fill:#000000;fill-opacity:1;fill-rule:nonzero;stroke:none"
           id="text877"><tspan
             x="0"
             y="0"
             id="tspan875">◦</tspan></text>
        <text
           transform="matrix(1,0,0,-1,584.176,-378.249)"
           style="font-variant:normal;font-weight:normal;font-size:11.9552px;font-family:'Times New Roman';-inkscape-font-specification:TimesNewRomanPSMT;writing-mode:lr-tb;fill:#000000;fill-opacity:1;fill-rule:nonzero;stroke:none"
           id="text883"><tspan
             x="0 7.9741182 13.951718 17.275265 20.59881 25.249382 28.572927 34.550529 136.21001 143.51463 146.83817 156.13931 159.46286 162.78641"
             y="0"
             sodipodi:role="line"
             id="tspan879">ColisiónLímite</tspan><tspan
             x="128.55299 137.18466 141.16574 144.48929 147.81282 153.12094 159.09854 162.42209 167.73019"
             y="14.446"
             sodipodi:role="line"
             id="tspan881">Articular</tspan></text>
        <text
           transform="matrix(1,0,0,-1,755.879,-388.356)"
           style="font-variant:normal;font-weight:normal;font-size:7.9701px;font-family:'Times New Roman';-inkscape-font-specification:TimesNewRomanPSMT;writing-mode:lr-tb;fill:#000000;fill-opacity:1;fill-rule:nonzero;stroke:none"
           id="text887"><tspan
             x="0"
             y="0"
             id="tspan885">a</tspan></text>
        <text
           transform="matrix(1,0,0,-1,777.418,-385.472)"
           style="font-variant:normal;font-weight:normal;font-size:11.9552px;font-family:'Times New Roman';-inkscape-font-specification:TimesNewRomanPSMT;writing-mode:lr-tb;fill:#000000;fill-opacity:1;fill-rule:nonzero;stroke:none"
           id="text891"><tspan
             x="0 8.6316547 11.9552 17.263309 22.571417 28.549017 33.857128 39.165234 45.142834 48.466381"
             y="0"
             sodipodi:role="line"
             id="tspan889">Alcanzable</tspan></text>
        <text
           transform="matrix(1,0,0,-1,831.181,-381.133)"
           style="font-variant:normal;font-weight:normal;font-size:7.9701px;font-family:'Times New Roman';-inkscape-font-specification:TimesNewRomanPSMT;writing-mode:lr-tb;fill:#000000;fill-opacity:1;fill-rule:nonzero;stroke:none"
           id="text895"><tspan
             x="0"
             y="0"
             id="tspan893">b</tspan></text>
        <text
           transform="matrix(1,0,0,-1,858.13,-378.249)"
           style="font-variant:normal;font-weight:normal;font-size:11.9552px;font-family:'Times New Roman';-inkscape-font-specification:TimesNewRomanPSMT;writing-mode:lr-tb;fill:#000000;fill-opacity:1;fill-rule:nonzero;stroke:none"
           id="text905"><tspan
             x="0 6.4797182 11.787827 17.765427 26.050381 32.027981"
             y="0"
             sodipodi:role="line"
             id="tspan897">Tapade</tspan><tspan
             x="-3.575 0.40608159 6.3836818 11.034254 16.342363 20.323444 25.631554 28.955099 34.932697"
             y="14.446"
             sodipodi:role="line"
             id="tspan899">Inserción</tspan><tspan
             x="70.237 76.716721 82.024826 88.002426 96.287384 102.26498"
             y="0"
             sodipodi:role="line"
             id="tspan901">Tapade</tspan><tspan
             x="66.623001 74.597122 80.574715 83.898262 87.221809 91.872383 95.19593 101.17353"
             y="14.446"
             sodipodi:role="line"
             id="tspan903">Colisión</tspan></text>
        <text
           transform="matrix(1,0,0,-1,965.276,-388.356)"
           style="font-variant:normal;font-weight:normal;font-size:7.9701px;font-family:'Times New Roman';-inkscape-font-specification:TimesNewRomanPSMT;writing-mode:lr-tb;fill:#000000;fill-opacity:1;fill-rule:nonzero;stroke:none"
           id="text909"><tspan
             x="0"
             y="0"
             id="tspan907">c</tspan></text>
        <text
           transform="matrix(1,0,0,-1,994.846,-378.249)"
           style="font-variant:normal;font-weight:normal;font-size:11.9552px;font-family:'Times New Roman';-inkscape-font-specification:TimesNewRomanPSMT;writing-mode:lr-tb;fill:#000000;fill-opacity:1;fill-rule:nonzero;stroke:none"
           id="text919"><tspan
             x="0 8.6316547 11.9552 16.605772 19.929317 25.237427 31.215027 36.523136 39.846684 48.131634 54.109234"
             y="0"
             sodipodi:role="line"
             id="tspan911">Distanciade</tspan><tspan
             x="7.4689999 11.450082 17.427681 22.078255 27.386364 31.367445 36.675552 39.9991 45.9767"
             y="14.446"
             sodipodi:role="line"
             id="tspan913">Inserción</tspan><tspan
             x="78.18 85.484627 91.462227 97.439827 103.41743 106.74097 110.06452 116.04212 125.00852 130.98611"
             y="0"
             sodipodi:role="line"
             id="tspan915">Longitudde</tspan><tspan
             x="92.625 101.25665 107.23425 113.21185 116.5354 -478.54401 -471.65781 -468.33426 -462.35666 -453.40222 -430.16132 -423.26315 -419.93961 -413.96201 -405.00757 -381.77863 -374.88046 -371.55692 -365.57932 -356.62488 -333.3959 -326.49777 -323.17422 -317.19662 -308.24219"
             y="14.446"
             sodipodi:role="line"
             id="tspan917">AgujaTipo1Tipo2Tipo3Tipo4</tspan></text>
        <g
           id="g921">
          <path
             d="m 466.583,-399.388 h 692.076"
             style="fill:none;stroke:#000000;stroke-width:0.5978;stroke-linecap:butt;stroke-linejoin:miter;stroke-miterlimit:10;stroke-dasharray:none;stroke-opacity:1"
             id="path923" />
        </g>
        <text
           transform="matrix(1,0,0,-1,484.139,-413.149)"
           style="font-variant:normal;font-weight:normal;font-size:11.9552px;font-family:'Times New Roman';-inkscape-font-specification:TimesNewRomanPSMT;writing-mode:lr-tb;fill:#000000;fill-opacity:1;fill-rule:nonzero;stroke:none"
           id="text945"><tspan
             x="0 44.737 93.119003 141.502 189.884 249.194 319.431 389.668 459.905 526.96698 532.94458 538.92218 541.91101 547.88861 611.96301 617.94061"
             y="0"
             sodipodi:role="line"
             id="tspan925">10000011010.0850</tspan><tspan
             x="0 44.737 93.119003 141.502 189.884 249.194 319.431 389.668 459.905 526.96698 532.94458 538.92218 541.91101 547.88861 611.96301 617.94061"
             y="14.445"
             sodipodi:role="line"
             id="tspan927">21100108056.1380</tspan><tspan
             x="0 44.737 93.119003 141.502 189.884 249.194 319.431 389.668 459.905 526.96698 532.94458 538.92218 541.91101 547.88861 611.96301 617.94061"
             y="28.891001"
             sodipodi:role="line"
             id="tspan929">30000017028.2350</tspan><tspan
             x="0 44.737 93.119003 141.502 189.88499 249.194 319.431 389.668 459.905 526.96698 532.94458 538.92218 541.91101 547.88861 611.96301 617.94061"
             y="43.337002"
             sodipodi:role="line"
             id="tspan931">41000018040.0660</tspan><tspan
             x="0 44.737 93.119003 141.502 189.88499 249.194 319.431 389.668 459.905 526.96698 532.94458 538.92218 541.91101 547.88861 611.96301 617.94061"
             y="57.783001"
             sodipodi:role="line"
             id="tspan933">50000012029.2250</tspan><tspan
             x="0 44.737 93.119003 141.502 189.88499 249.194 319.431 389.668 459.905 527.18903 532.72424 538.70184 541.69067 547.66827 611.96301 617.94061"
             y="72.228996"
             sodipodi:role="line"
             id="tspan935">61000108011.2450</tspan><tspan
             x="0 44.737 93.119003 141.502 189.88499 249.194 319.431 389.668 459.905 526.96698 532.94458 538.92218 541.91101 547.88861 611.96301 617.94061"
             y="86.674004"
             sodipodi:role="line"
             id="tspan937">70100008016.8450</tspan><tspan
             x="0 44.737 93.119003 141.502 189.88499 249.194 319.431 389.668 459.905 526.96698 532.94458 538.92218 541.91101 547.88861 611.96301 617.94061"
             y="101.12"
             sodipodi:role="line"
             id="tspan939">80000016017.8250</tspan><tspan
             x="0 44.737 93.119003 141.502 189.88499 249.194 319.431 389.668 459.905 529.95599 535.93359 538.92242 544.90002 611.96301 617.94061"
             y="115.566"
             sodipodi:role="line"
             id="tspan941">9000001609.4450</tspan><tspan
             x="-2.9879999 2.9895999 44.725204 93.119003 141.502 189.88499 249.194 319.431 389.668 459.905 526.96802 532.94562 538.92322 541.91199 547.88959 611.96301 617.94061"
             y="130.01199"
             sodipodi:role="line"
             id="tspan943">101000108015.0850</tspan></text>
        <g
           id="g947">
          <path
             d="m 466.583,-550.034 h 692.076"
             style="fill:none;stroke:#000000;stroke-width:0.9564;stroke-linecap:butt;stroke-linejoin:miter;stroke-miterlimit:10;stroke-dasharray:none;stroke-opacity:1"
             id="path949" />
        </g>
        <text
           transform="matrix(1,0,0,-1,472.56,-557.009)"
           style="font-variant:normal;font-weight:normal;font-size:6.9738px;font-family:'Times New Roman';-inkscape-font-specification:TimesNewRomanPSMT;writing-mode:lr-tb;fill:#000000;fill-opacity:1;fill-rule:nonzero;stroke:none"
           id="text953"><tspan
             x="0"
             y="0"
             id="tspan951">a</tspan></text>
        <text
           transform="matrix(1,0,0,-1,476.154,-560.624)"
           style="font-variant:normal;font-weight:normal;font-size:9.9626px;font-family:'Times New Roman';-inkscape-font-specification:TimesNewRomanPSMT;writing-mode:lr-tb;fill:#000000;fill-opacity:1;fill-rule:nonzero;stroke:none"
           id="text957"><tspan
             x="0 5.2502904 10.789495 16.049749 19.9252 26.839245 31.262638 36.243938 40.667332 45.090729 50.072029 56.986073 61.409466 64.17907 69.16037 74.14167 81.613617 84.383224 87.152824 94.903725 97.673332 100.44293 107.35698 111.78037 115.09792 117.86752 120.63712 125.06052 130.04182 132.81142 137.23482 140.01437"
             y="0"
             sodipodi:role="line"
             id="tspan955">:Siseexcedealgúnlímitearticular.</tspan></text>
        <text
           transform="matrix(1,0,0,-1,621.118,-557.009)"
           style="font-variant:normal;font-weight:normal;font-size:6.9738px;font-family:'Times New Roman';-inkscape-font-specification:TimesNewRomanPSMT;writing-mode:lr-tb;fill:#000000;fill-opacity:1;fill-rule:nonzero;stroke:none"
           id="text961"><tspan
             x="0"
             y="0"
             id="tspan959">b</tspan></text>
        <text
           transform="matrix(1,0,0,-1,625.103,-560.624)"
           style="font-variant:normal;font-weight:normal;font-size:9.9626px;font-family:'Times New Roman';-inkscape-font-specification:TimesNewRomanPSMT;writing-mode:lr-tb;fill:#000000;fill-opacity:1;fill-rule:nonzero;stroke:none"
           id="text965"><tspan
             x="0 5.260253 10.799459 16.059711 20.483105 25.743359 30.724659 35.705959 38.475563 42.898956 45.66856 48.43816 53.41946 60.891411 65.314804 71.680908 76.104301 78.873901 83.855202 88.278595 96.029503 100.4529 103.2225 105.9921 110.4155 114.83889 122.58979 127.01318 131.99449 134.76408 141.67813 146.10153 148.87112 153.29453 157.71793 162.69922 167.12262 171.54601 176.52731 179.29691 183.72031"
             y="0"
             sodipodi:role="line"
             id="tspan963">:Sielobjetivoescinemáticamentealcanzable.</tspan></text>
        <text
           transform="matrix(1,0,0,-1,813.761,-557.009)"
           style="font-variant:normal;font-weight:normal;font-size:6.9738px;font-family:'Times New Roman';-inkscape-font-specification:TimesNewRomanPSMT;writing-mode:lr-tb;fill:#000000;fill-opacity:1;fill-rule:nonzero;stroke:none"
           id="text969"><tspan
             x="0"
             y="0"
             id="tspan967">c</tspan></text>
        <text
           transform="matrix(1,0,0,-1,817.354,-560.624)"
           style="font-variant:normal;font-weight:normal;font-size:9.9626px;font-family:'Times New Roman';-inkscape-font-specification:TimesNewRomanPSMT;writing-mode:lr-tb;fill:#000000;fill-opacity:1;fill-rule:nonzero;stroke:none"
           id="text973"><tspan
             x="0 5.260253 10.799459 16.059711 20.483105 25.464405 28.234009 32.109459 34.879063 41.793106 46.216503 51.1978 56.1791 58.948704 63.372097 67.795494 70.565094 78.037048 82.460442 87.441742 94.913689 99.337082 102.10669 107.08799 112.06929 117.05059 123.96463 126.73424 131.15762 136.13893 143.05298 148.03427 152.45767 156.88106 159.65067 164.63196 169.05536"
             y="0"
             sodipodi:role="line"
             id="tspan971">:Siexistecontactoconalgunatapavecina.</tspan></text>
      </g>
    </g>
  </g>
</svg>
