<?xml version="1.0" encoding="UTF-8" standalone="no"?>
<svg
   xmlns:dc="http://purl.org/dc/elements/1.1/"
   xmlns:cc="http://creativecommons.org/ns#"
   xmlns:rdf="http://www.w3.org/1999/02/22-rdf-syntax-ns#"
   xmlns:svg="http://www.w3.org/2000/svg"
   xmlns="http://www.w3.org/2000/svg"
   xmlns:sodipodi="http://sodipodi.sourceforge.net/DTD/sodipodi-0.dtd"
   xmlns:inkscape="http://www.inkscape.org/namespaces/inkscape"
   width="165.00017mm"
   height="63.67429mm"
   viewBox="0 0 165.00017 63.67429"
   version="1.1"
   id="svg8"
   inkscape:version="1.0.2-2 (e86c870879, 2021-01-15)"
   sodipodi:docname="tab_principalesVentajasDesvetajasBiopsiaGuiadaPorImagen.svg">
  <defs
     id="defs2" />
  <sodipodi:namedview
     id="base"
     pagecolor="#ffffff"
     bordercolor="#666666"
     borderopacity="1.0"
     inkscape:pageopacity="0.0"
     inkscape:pageshadow="2"
     inkscape:zoom="0.79952035"
     inkscape:cx="325.88799"
     inkscape:cy="406.14785"
     inkscape:document-units="mm"
     inkscape:current-layer="g20"
     inkscape:document-rotation="0"
     showgrid="false"
     inkscape:window-width="1046"
     inkscape:window-height="1041"
     inkscape:window-x="29"
     inkscape:window-y="0"
     inkscape:window-maximized="0" />
  <metadata
     id="metadata5">
    <rdf:RDF>
      <cc:Work
         rdf:about="">
        <dc:format>image/svg+xml</dc:format>
        <dc:type
           rdf:resource="http://purl.org/dc/dcmitype/StillImage" />
        <dc:title></dc:title>
      </cc:Work>
    </rdf:RDF>
  </metadata>
  <g
     inkscape:label="Capa 1"
     inkscape:groupmode="layer"
     id="layer1"
     transform="translate(95.774308,510.00696)">
    <g
       id="g20"
       transform="matrix(0.35277777,0,0,-0.35277777,-97.021297,-398.87186)">
      <text
         transform="scale(1,-1)"
         style="font-style:italic;font-variant:normal;font-size:11.9552px;font-family:'Times New Roman';-inkscape-font-specification:TimesNewRomanPS-ItalicMT;writing-mode:lr-tb;fill:#000000;fill-opacity:1;fill-rule:nonzero;stroke:none"
         id="text64"
         x="75.038773"
         y="-306.72772"><tspan
           x="75.038773 82.343399 86.993973 90.31752 96.29512 101.60323 104.92677 110.90437 116.88197 120.20551 125.51363 133.153 138.46111 143.76921 149.74681 153.07036 159.04796 162.37151 168.34911 175.98848 184.28539 190.26299 195.57111 200.22166 205.52979 210.83789 216.81549 220.13904 226.11664 229.44019 235.41779 243.05716 249.03476 257.33167 263.30927 266.63281 271.28339 274.60693 277.93045 283.90805 287.2316 293.2092 300.84857 306.82617 310.14972 316.12732 322.10492 326.75549 330.07904 336.05664 343.69601 349.67361 355.65121 358.97476 364.95236 370.92996 376.90756 384.54694 390.52454 396.50214 404.14151 407.46506 416.09671 422.07431 428.05191 433.36002"
           y="-306.72772"
           sodipodi:role="line"
           id="tspan62">Principalesventajasydesventajasdedistintasbiopsiasguiadasporimagen</tspan></text>
      <g
         id="g66"
         transform="translate(4.6687724,465.00973)">
        <path
           d="M -1.134,-173.056 H 466.583"
           style="fill:none;stroke:#000000;stroke-width:0.9564;stroke-linecap:butt;stroke-linejoin:miter;stroke-miterlimit:10;stroke-dasharray:none;stroke-opacity:1"
           id="path68" />
      </g>
      <text
         transform="scale(1,-1)"
         style="font-variant:normal;font-weight:bold;font-size:11.9552px;font-family:'Times New Roman';-inkscape-font-specification:TimesNewRomanPS-BoldMT;writing-mode:lr-tb;fill:#000000;fill-opacity:1;fill-rule:nonzero;stroke:none"
         id="text72"
         x="9.5127726"
         y="-278.01373"><tspan
           x="9.5127726 16.159864 19.483408 24.133982 28.115063 33.423172 43.381855 52.3363 58.983391 67.280296 76.581444 83.228539 86.552078 92.529678 99.176773 179.13977 186.6835 191.99161 198.6387 202.61978 208.59738 212.57846 218.55606 350.67679 359.30844 364.61655 369.26712 375.24472 380.55283 387.19992 391.181 397.1586 401.13968 407.11728"
           y="-278.01373"
           sodipodi:role="line"
           id="tspan70">SistemadeGuiadoVentajasDesventajas</tspan></text>
      <g
         id="g74"
         transform="translate(4.6687724,465.00973)">
        <path
           d="M -1.134,-193.69 H 466.583"
           style="fill:none;stroke:#000000;stroke-width:0.5978;stroke-linecap:butt;stroke-linejoin:miter;stroke-miterlimit:10;stroke-dasharray:none;stroke-opacity:1"
           id="path76" />
      </g>
      <text
         transform="scale(1,-1)"
         style="font-variant:normal;font-weight:normal;font-size:11.9552px;font-family:'Times New Roman';-inkscape-font-specification:TimesNewRomanPSMT;writing-mode:lr-tb;fill:#000000;fill-opacity:1;fill-rule:nonzero;stroke:none"
         id="text80"
         x="47.679771"
         y="-243.04472"><tspan
           x="47.679771 56.311428"
           y="-243.04472"
           sodipodi:role="line"
           id="tspan78">US</tspan></text>
      <text
         transform="scale(1,-1)"
         style="font-variant:normal;font-weight:normal;font-size:7.9701px;font-family:'Times New Roman';-inkscape-font-specification:TimesNewRomanPSMT;writing-mode:lr-tb;fill:#000000;fill-opacity:1;fill-rule:nonzero;stroke:none"
         id="text84"
         x="62.962772"
         y="-247.38272"><tspan
           x="62.962772"
           y="-247.38272"
           id="tspan82">a</tspan></text>
      <text
         transform="scale(1,-1)"
         style="font-variant:normal;font-weight:normal;font-size:10.9091px;font-family:'Times New Roman';-inkscape-font-specification:TimesNewRomanPSMT;writing-mode:lr-tb;fill:#000000;fill-opacity:1;fill-rule:nonzero;stroke:none"
         id="text96"
         x="118.75578"
         y="-257.55972"><tspan
           x="118.75578 128.0285 131.66124 140.14851 144.99216 150.4467 155.29034 163.47217 168.31581 176.49763 179.53036 182.5631 187.40674 195.89401 201.34857 209.5304 213.16312 218.00676 222.85042 225.88315"
           y="-257.55972"
           sodipodi:role="line"
           id="tspan86">•Imagenentiemporeal.</tspan><tspan
           x="118.75578 128.0285 134.69397 137.7267 143.18124 146.81398 154.38489 159.83945 167.41035 171.04309 175.88673 181.34128 184.37401 189.21765 194.06129 197.09402 202.54857 208.00311"
           y="-244.01073"
           sodipodi:role="line"
           id="tspan88">•Librederadiación.</tspan><tspan
           x="118.75578 128.0285 133.94124 138.78488 143.62852 149.08307 154.53763 157.57036 163.0249 168.47945 171.51218 179.07219 184.52673 192.09766 197.5522 202.39584 205.42857 213.6104 218.45404 223.90858 228.15222 231.18495"
           y="-230.46173"
           sodipodi:role="line"
           id="tspan90">•Tecnologíadebajocosto</tspan><tspan
           x="297.17477 303.84024 306.87296 312.32751 317.17114 320.80389 329.65115 334.49481 339.94937 348.43665 353.89117 357.52393 362.36755 367.82211 372.06573 375.09848 380.55301 390.02213 395.47665 404.93484 409.7785 415.23306 420.68759 423.72034 427.35306 432.80762 435.84033 440.68399 446.13852 454.9967 460.45126"
           y="-250.78572"
           sodipodi:role="line"
           id="tspan92">Ligeracomprensiónnocontroladade</tspan><tspan
           x="297.17477 300.20752 307.77841 316.26569 321.10934 329.59662"
           y="-237.23672"
           sodipodi:role="line"
           id="tspan94">lamama</tspan></text>
      <g
         id="g98"
         transform="translate(4.6687724,465.00973)">
        <path
           d="M -1.134,-239.081 H 466.583"
           style="fill:none;stroke:#000000;stroke-width:0.3985;stroke-linecap:butt;stroke-linejoin:miter;stroke-miterlimit:10;stroke-dasharray:none;stroke-opacity:1"
           id="path100" />
      </g>
      <text
         transform="scale(1,-1)"
         style="font-variant:normal;font-weight:normal;font-size:11.9552px;font-family:'Times New Roman';-inkscape-font-specification:TimesNewRomanPSMT;writing-mode:lr-tb;fill:#000000;fill-opacity:1;fill-rule:nonzero;stroke:none"
         id="text104"
         x="27.795773"
         y="-202.20273"><tspan
           x="27.795773 38.423946 43.732052 53.033199 59.010799 64.988396 68.969482 74.277588 78.258667 81.582214"
           y="-202.20273"
           sodipodi:role="line"
           id="tspan102">Mamografía</tspan></text>
      <text
         transform="scale(1,-1)"
         style="font-variant:normal;font-weight:normal;font-size:10.9091px;font-family:'Times New Roman';-inkscape-font-specification:TimesNewRomanPSMT;writing-mode:lr-tb;fill:#000000;fill-opacity:1;fill-rule:nonzero;stroke:none"
         id="text114"
         x="117.12077"
         y="-202.06773"><tspan
           x="117.12077 123.18623 128.64078 132.88443 135.91714 140.76079 143.79352 149.24808 157.41899 162.88445 166.51718 171.97173 177.42627 184.99719 190.45174 198.02266 201.05539 208.6263 214.08086 218.92448 223.76813 226.80086 231.64452 237.09904 240.13177"
           y="-202.06773"
           sodipodi:role="line"
           id="tspan106">Posiciónpronadelapaciente</tspan><tspan
           x="298.80975 308.08249 313.99524 318.83887 323.68253 329.13705 334.59161 337.62433 343.07889 348.53345 351.56616 359.12619 364.58072 372.15164 376.99527 380.02802 383.06073 391.24255 396.08621 401.54074 405.78439 408.81711 414.27167"
           y="-215.61772"
           sodipodi:role="line"
           id="tspan108">•Tecnologíadealtocosto.</tspan><tspan
           x="297.58478 305.62479 312.90115 318.35568 326.84299 332.29752 335.93027 340.7739 346.22845 350.47208 353.50482 358.95935 366.53027 369.56302 375.01755 379.86118 385.31573 393.80301 399.25757 404.71213 411.67212 419.24304 424.08667 429.54123 434.99579 438.0285 441.66125 447.11578 450.14853 454.99216 460.44672"
           y="-202.06773"
           sodipodi:role="line"
           id="tspan110">•Comprensiónincómodaycontrolada</tspan><tspan
           x="297.17477 302.6293 310.20023 313.23297 320.80386 329.29117 334.1348 342.62207 350.19299 355.64755 361.10208 367.4621 372.91666 375.94937 380.793 385.63666 390.48029 397.4512 402.29486 407.74939 416.23666 421.69122 425.32394 430.1676 434.41122 439.86578 443.4985 448.34216 452.58578"
           y="-188.51872"
           sodipodi:role="line"
           id="tspan112">delamamaporplacascompresoras.</tspan></text>
      <g
         id="g116"
         transform="translate(4.6687724,465.00973)">
        <path
           d="M -1.134,-287.001 H 466.583"
           style="fill:none;stroke:#000000;stroke-width:0.3985;stroke-linecap:butt;stroke-linejoin:miter;stroke-miterlimit:10;stroke-dasharray:none;stroke-opacity:1"
           id="path118" />
      </g>
      <text
         transform="scale(1,-1)"
         style="font-variant:normal;font-weight:normal;font-size:11.9552px;font-family:'Times New Roman';-inkscape-font-specification:TimesNewRomanPSMT;writing-mode:lr-tb;fill:#000000;fill-opacity:1;fill-rule:nonzero;stroke:none"
         id="text122"
         x="43.804771"
         y="-158.97473"><tspan
           x="43.804771 54.432945 62.407063"
           y="-158.97473"
           sodipodi:role="line"
           id="tspan120">MRI</tspan></text>
      <text
         transform="scale(1,-1)"
         style="font-variant:normal;font-weight:normal;font-size:7.9701px;font-family:'Times New Roman';-inkscape-font-specification:TimesNewRomanPSMT;writing-mode:lr-tb;fill:#000000;fill-opacity:1;fill-rule:nonzero;stroke:none"
         id="text126"
         x="66.389771"
         y="-163.31372"><tspan
           x="66.389771"
           y="-163.31372"
           id="tspan124">b</tspan></text>
      <text
         transform="scale(1,-1)"
         style="font-variant:normal;font-weight:normal;font-size:10.9091px;font-family:'Times New Roman';-inkscape-font-specification:TimesNewRomanPSMT;writing-mode:lr-tb;fill:#000000;fill-opacity:1;fill-rule:nonzero;stroke:none"
         id="text134"
         x="117.12077"
         y="-167.69673"><tspan
           x="117.12077 124.99715 129.24078 139.23352 144.68806 154.0699 158.31354 163.76808 166.80081 171.64445 174.67719 179.52083 184.97537 190.42992 194.06265 198.9063 207.69902 213.15358 217.99722 221.62994 231.01178 235.85541 240.09906 243.13179 247.97543 253.42998 256.46271 259.49542 262.52817 267.3718 272.21545 280.38635"
           y="-167.69673"
           sodipodi:role="line"
           id="tspan128">Usodesujetadoresparaestabilizare</tspan><tspan
           x="117.12077 120.1535 125.60806 134.09534 139.54988 145.00443 148.03716 151.06989 154.10262 158.94626 163.7899 170.1499 173.18263 180.75356 189.24083 194.08447 202.57175"
           y="-154.14774"
           sodipodi:role="line"
           id="tspan130">inmovilizarlamama</tspan><tspan
           x="297.17477 303.08749 307.93115 312.77478 318.22934 323.68387 326.71661 332.17117 337.6257 340.65845 348.21844 353.673 361.2439 366.08755 369.12027 372.15302 380.33484 385.17847 390.63303 394.87665 397.90939"
           y="-160.92273"
           sodipodi:role="line"
           id="tspan132">Tecnologíadealtocosto</tspan></text>
      <g
         id="g136"
         transform="translate(4.6687724,465.00973)">
        <path
           d="M -1.134,-317.735 H 466.583"
           style="fill:none;stroke:#000000;stroke-width:0.9564;stroke-linecap:butt;stroke-linejoin:miter;stroke-miterlimit:10;stroke-dasharray:none;stroke-opacity:1"
           id="path138" />
      </g>
      <text
         transform="scale(1,-1)"
         style="font-variant:normal;font-weight:normal;font-size:6.9738px;font-family:'Times New Roman';-inkscape-font-specification:TimesNewRomanPSMT;writing-mode:lr-tb;fill:#000000;fill-opacity:1;fill-rule:nonzero;stroke:none"
         id="text142"
         x="9.5127726"
         y="-140.29973"><tspan
           x="9.5127726"
           y="-140.29973"
           id="tspan140">a</tspan></text>
      <text
         transform="scale(1,-1)"
         style="font-variant:normal;font-weight:normal;font-size:9.9626px;font-family:'Times New Roman';-inkscape-font-specification:TimesNewRomanPSMT;writing-mode:lr-tb;fill:#000000;fill-opacity:1;fill-rule:nonzero;stroke:none"
         id="text146"
         x="13.105772"
         y="-136.68472"><tspan
           x="13.105772 18.366026 25.559023 28.328625 31.098228 34.415775 38.839169 42.714619 47.695923 52.677219 57.65852 62.63982 65.957367 70.38076 73.698303 76.467911 80.891304"
           y="-136.68472"
           sodipodi:role="line"
           id="tspan144">:Ultrasonografía.</tspan></text>
      <text
         transform="scale(1,-1)"
         style="font-variant:normal;font-weight:normal;font-size:6.9738px;font-family:'Times New Roman';-inkscape-font-specification:TimesNewRomanPSMT;writing-mode:lr-tb;fill:#000000;fill-opacity:1;fill-rule:nonzero;stroke:none"
         id="text150"
         x="85.865776"
         y="-140.29973"><tspan
           x="85.865776"
           y="-140.29973"
           id="tspan148">b</tspan></text>
      <text
         transform="scale(1,-1)"
         style="font-variant:normal;font-weight:normal;font-size:9.9626px;font-family:'Times New Roman';-inkscape-font-specification:TimesNewRomanPSMT;writing-mode:lr-tb;fill:#000000;fill-opacity:1;fill-rule:nonzero;stroke:none"
         id="text154"
         x="89.850769"
         y="-136.68472"><tspan
           x="89.850769 95.101059 98.41861 106.16951 110.5929 115.5742 119.9976 127.46955 132.45085 137.43214 143.24034 149.88539 154.30879 158.18425 163.16554 168.14685 172.57024 177.55154 181.97493 184.74454 191.65858 200.51534 204.93872 209.92003 214.90132 219.32472 222.09431 224.86392 229.28732"
           y="-136.68472"
           sodipodi:role="line"
           id="tspan152">:ImagenporResonanciaMagnética</tspan></text>
      <text
         transform="scale(1,-1)"
         style="font-variant:normal;font-weight:normal;font-size:11.9552px;font-family:'Times New Roman';-inkscape-font-specification:TimesNewRomanPSMT;writing-mode:lr-tb;fill:#000000;fill-opacity:1;fill-rule:nonzero;stroke:none"
         id="text158"
         x="465.27377"
         y="-136.68472"><tspan
           x="465.27377"
           y="-136.68472"
           id="tspan156">.</tspan></text>
    </g>
  </g>
</svg>
