<?xml version="1.0" encoding="UTF-8" standalone="no"?>
<svg
   xmlns:dc="http://purl.org/dc/elements/1.1/"
   xmlns:cc="http://creativecommons.org/ns#"
   xmlns:rdf="http://www.w3.org/1999/02/22-rdf-syntax-ns#"
   xmlns:svg="http://www.w3.org/2000/svg"
   xmlns="http://www.w3.org/2000/svg"
   xmlns:sodipodi="http://sodipodi.sourceforge.net/DTD/sodipodi-0.dtd"
   xmlns:inkscape="http://www.inkscape.org/namespaces/inkscape"
   width="165.00017mm"
   height="76.971085mm"
   viewBox="0 0 165.00017 76.971085"
   version="1.1"
   id="svg8"
   inkscape:version="1.0.2-2 (e86c870879, 2021-01-15)"
   sodipodi:docname="tab_ventajasYdesventajasEspacioOperacional.svg">
  <defs
     id="defs2" />
  <sodipodi:namedview
     id="base"
     pagecolor="#ffffff"
     bordercolor="#666666"
     borderopacity="1.0"
     inkscape:pageopacity="0.0"
     inkscape:pageshadow="2"
     inkscape:zoom="1.3856818"
     inkscape:cx="334.61995"
     inkscape:cy="80.02556"
     inkscape:document-units="mm"
     inkscape:current-layer="g108"
     inkscape:document-rotation="0"
     showgrid="false"
     inkscape:window-width="1258"
     inkscape:window-height="1041"
     inkscape:window-x="130"
     inkscape:window-y="0"
     inkscape:window-maximized="0" />
  <metadata
     id="metadata5">
    <rdf:RDF>
      <cc:Work
         rdf:about="">
        <dc:format>image/svg+xml</dc:format>
        <dc:type
           rdf:resource="http://purl.org/dc/dcmitype/StillImage" />
        <dc:title></dc:title>
      </cc:Work>
    </rdf:RDF>
  </metadata>
  <g
     inkscape:label="Capa 1"
     inkscape:groupmode="layer"
     id="layer1"
     transform="translate(7.6493214,54.769127)">
    <g
       id="g20"
       transform="matrix(0.03527778,0,0,-0.03527778,-32.649273,211.39958)">
      <g
         id="g30"
         transform="scale(10)">
        <text
           transform="matrix(1,0,0,-1,94.8629,746.193)"
           style="font-variant:normal;font-weight:bold;font-size:10.9091px;font-family:'Times New Roman';-inkscape-font-specification:TimesNewRomanPS-BoldMT;writing-mode:lr-tb;fill:#000000;fill-opacity:1;fill-rule:nonzero;stroke:none"
           id="text34"><tspan
             x="0 6.2835956 11.738146 17.803606 20.836334"
             y="0"
             sodipodi:role="line"
             id="tspan32">Tabla</tspan></text>
        <text
           transform="matrix(1,0,0,-1,123.6359,746.193)"
           style="font-variant:normal;font-weight:bold;font-size:9.9626px;font-family:'Times New Roman';-inkscape-font-specification:TimesNewRomanPS-BoldMT;writing-mode:lr-tb;fill:#000000;fill-opacity:1;fill-rule:nonzero;stroke:none"
           id="text38"><tspan
             x="0 4.9812999"
             y="0"
             sodipodi:role="line"
             id="tspan36">5:</tspan></text>
        <text
           transform="matrix(1,0,0,-1,134.425,746.193)"
           style="font-style:italic;font-variant:normal;font-size:11.9552px;font-family:'Times New Roman';-inkscape-font-specification:TimesNewRomanPS-ItalicMT;writing-mode:lr-tb;fill:#000000;fill-opacity:1;fill-rule:nonzero;stroke:none"
           id="text42"><tspan
             x="0 5.9894595 11.297568 17.275167 20.598715 26.576313 29.89986 35.87746 43.504807 51.801678 57.779278 63.087387 67.737961 73.046066 78.354179 84.331779 87.655327 93.632927 96.956467 102.93407 110.57354 116.55114 124.84801 128.17155 137.13799 143.11559 146.43913 152.41673 158.39432 161.71786 165.04141 168.36496 173.67307 179.65067 184.95879 188.28232 194.25992 203.22635 208.53445 217.50089 222.80899 229.12151 234.42961 239.08018 245.05779 251.03539 256.34351 259.66705 268.63345 274.61105 280.58865 285.89676 290.54733 296.52493 301.83307 305.15659 311.13419 317.11179 323.08939 329.40192 337.69879 343.67639 348.32697 351.65051 354.97406 360.28217 366.25977 369.58331 375.56091"
             y="0"
             sodipodi:role="line"
             id="tspan40">Ventajasydesventajasdelaplanificaciónenelespaciooperacionalyarticular</tspan></text>
      </g>
      <path
         d="M 708.66,7314.19 H 5385.83"
         style="fill:none;stroke:#000000;stroke-width:9.564;stroke-linecap:butt;stroke-linejoin:miter;stroke-miterlimit:10;stroke-dasharray:none;stroke-opacity:1"
         id="path44" />
      <g
         id="g46"
         transform="scale(10)">
        <text
           transform="matrix(1,0,0,-1,189.396,717.479)"
           style="font-variant:normal;font-weight:bold;font-size:11.9552px;font-family:'Times New Roman';-inkscape-font-specification:TimesNewRomanPS-BoldMT;writing-mode:lr-tb;fill:#000000;fill-opacity:1;fill-rule:nonzero;stroke:none"
           id="text50"><tspan
             x="0 7.9741182 12.624691 19.271782 25.249382 30.557491 33.881039 42.847462 52.148605 58.795696 64.103806 69.411919 75.389519 80.697624 84.021172 89.998772 96.645859 102.62346 205.12184 213.09596 217.74654 224.39363 230.37123 235.67934 239.00288 247.9572 256.58884 261.89697 265.87805 269.2016 274.5097 281.1568 284.48035 290.45795"
             y="0"
             sodipodi:role="line"
             id="tspan48">EspacioOperacionalEspacioArticular</tspan></text>
      </g>
      <path
         d="M 708.66,7107.86 H 5385.83"
         style="fill:none;stroke:#000000;stroke-width:5.978;stroke-linecap:butt;stroke-linejoin:miter;stroke-miterlimit:10;stroke-dasharray:none;stroke-opacity:1"
         id="path52" />
      <g
         id="g54"
         transform="scale(10)">
        <text
           transform="matrix(1,0,0,-1,86.9961,664.843)"
           style="font-variant:normal;font-weight:normal;font-size:11.9552px;font-family:'Times New Roman';-inkscape-font-specification:TimesNewRomanPSMT;writing-mode:lr-tb;fill:#000000;fill-opacity:1;fill-rule:nonzero;stroke:none"
           id="text58"><tspan
             x="0 7.3164029 12.624512 18.602112 21.925657 27.233767 30.557312 35.865421"
             y="0"
             sodipodi:role="line"
             id="tspan56">Ventajas</tspan></text>
        <text
           transform="matrix(1,0,0,-1,151.2399,686.609)"
           style="font-variant:normal;font-weight:normal;font-size:10.9091px;font-family:'Times New Roman';-inkscape-font-specification:TimesNewRomanPSMT;writing-mode:lr-tb;fill:#000000;fill-opacity:1;fill-rule:nonzero;stroke:none"
           id="text76"><tspan
             x="0 9.2617168 18.959908 24.414457 29.869007 32.901737 41.389015 44.421745 49.265385 54.719936 57.752666 65.934319 70.777954 77.749069 83.203621 86.836349 91.679993 97.134537 101.97818 106.82182 109.85455 115.3091 118.34183"
             y="0"
             sodipodi:role="line"
             id="tspan60">•Movimientoespredecible</tspan><tspan
             x="-1.63594 1.9967903 5.02952 10.48407 13.5168 18.360441 21.99317 27.447721 32.902271 35.935001 40.778641 45.62228 48.65501 54.109562 62.29121 67.13485 75.316505 80.160141 85.003784 88.636513 91.669243 96.512886 100.75652 103.78925 108.6329 116.81454 121.05818 126.51273 131.35637 136.20001 143.77109 147.40382"
             y="13.5488"
             sodipodi:role="line"
             id="tspan62">(interpolaciónencartesianspace).</tspan><tspan
             x="0 9.2617168 18.959908 23.803547 26.836277 32.290829 38.650986 47.138264 51.981907 57.436455 62.280094 65.312828 73.494476 78.949028 86.520103 91.974655 97.429207 101.67284 104.70557 109.54922 114.39285 119.8474 122.88013 128.33469 135.3058"
             y="27.098801"
             sodipodi:role="line"
             id="tspan64">•Mejormanejodeobstáculosy</tspan><tspan
             x="-1.63594 3.2077005 8.6622505 11.694981 14.72771 18.97135 22.00408 27.45863 32.913181 37.756821 42.000462"
             y="40.647999"
             sodipodi:role="line"
             id="tspan66">colisiones.</tspan><tspan
             x="197.47806 206.73978 213.40524 216.43797 221.2816 226.12524 231.5798 236.42343 239.45616 244.91072 253.09236 261.57965 266.42328 273.39438 277.0271 281.87073 287.32529 290.35803 295.81256 303.38364 307.01639 310.64911 315.49274 319.73639 325.19095 330.03458 333.06732 338.52185 346.09293 349.12567 356.69675 360.32947"
             y="0.0027000001"
             sodipodi:role="line"
             id="tspan68">•Ejecuciónmásrápida(resuelvelaIK</tspan><tspan
             x="195.84212 200.08575 205.54031 208.57304 216.75468 221.59833 229.77998 232.81271 238.26726 245.23837 253.11475 257.95837 263.41293 268.86749 274.32202 277.35477 282.80933 285.84204 290.08569 293.71841"
             y="13.5519"
             sodipodi:role="line"
             id="tspan70">soloenloswaypoints).</tspan><tspan
             x="197.47806 206.73978 216.43797 221.89252 227.34706 230.37979 238.86708 241.89981 246.74345 252.198 255.23073 263.41238 268.86691 273.71057 279.47073 284.31436 289.15802 292.19073 297.64529 302.48892 307.94348 313.39804 319.75821 324.60184 331.57294 340.06021 344.90384 351.87491 356.11856 361.57312 366.41675 371.87131"
             y="27.1007"
             sodipodi:role="line"
             id="tspan72">•Movimientodelactuadoresmássuave</tspan><tspan
             x="195.84212 204.02377 207.65649 212.50014 217.34378 220.37651 226.13666 231.5912 239.16229 244.61684 249.46048 252.49321 255.52594 260.9805 265.82413 269.45685 275.21704 281.88248 284.91522 293.4025 296.43521 299.46796 304.31158 311.28268 319.46432 323.09705 327.9407 332.18433 335.21707 338.84979 341.88254 346.72617 351.56979 354.60254 360.0571 365.51163 370.35529 374.59891"
             y="40.649899"
             sodipodi:role="line"
             id="tspan74">yfácildevalidar:Límitesyrestricciones.</tspan></text>
        <text
           transform="matrix(1,0,0,-1,78.36502,593.1552)"
           style="font-variant:normal;font-weight:normal;font-size:11.9552px;font-family:'Times New Roman';-inkscape-font-specification:TimesNewRomanPSMT;writing-mode:lr-tb;fill:#000000;fill-opacity:1;fill-rule:nonzero;stroke:none"
           id="text80"><tspan
             x="0 8.6316547 13.939763 18.590336 24.567936 29.876045 35.853645 39.177189 44.485298 47.808846 53.116955"
             y="0"
             sodipodi:role="line"
             id="tspan78">Desventajas</tspan></text>
        <text
           transform="matrix(1,0,0,-1,151.24002,621.6693)"
           style="font-variant:normal;font-weight:normal;font-size:10.9091px;font-family:'Times New Roman';-inkscape-font-specification:TimesNewRomanPSMT;writing-mode:lr-tb;fill:#000000;fill-opacity:1;fill-rule:nonzero;stroke:none"
           id="text84"><tspan
             x="0 9.2617168 15.927176 18.959908 23.803547 28.647188 34.101738 38.945377 41.978107 47.432659 55.614296 64.101578 68.945221 75.916328 78.949059 83.792702 89.247246 92.279976 99.851059 103.48379 107.11652 111.96016 116.2038 121.65835 126.50199 129.53471 134.98927 142.56035 145.59308 153.16415 156.79689"
             y="0"
             sodipodi:role="line"
             id="tspan82">•Ejecuciónmáslenta(resuelvelaIK</tspan></text>
        <text
           transform="matrix(1,0,0,-1,315.89902,625.62828)"
           style="font-variant:normal;font-weight:normal;font-size:7.9701px;font-family:'Times New Roman';-inkscape-font-specification:TimesNewRomanPSMT;writing-mode:lr-tb;fill:#000000;fill-opacity:1;fill-rule:nonzero;stroke:none"
           id="text88"><tspan
             x="0"
             y="0"
             id="tspan86">a</tspan></text>
        <text
           transform="matrix(1,0,0,-1,149.60402,608.12008)"
           style="font-variant:normal;font-weight:normal;font-size:10.9091px;font-family:'Times New Roman';-inkscape-font-specification:TimesNewRomanPSMT;writing-mode:lr-tb;fill:#000000;fill-opacity:1;fill-rule:nonzero;stroke:none"
           id="text104"><tspan
             x="0 5.4545498 10.29819 13.930921 21.50201 26.345652 31.189291 36.643841 44.214931 49.669483 54.513123 58.756763 66.938416 72.39296 79.964043 82.996773 86.029503 90.873138 99.36042 104.81497 110.26952 113.90225"
             y="0"
             sodipodi:role="line"
             id="tspan90">paracadapasodetiempo).</tspan><tspan
             x="1.63594 10.897656 17.563116 23.323275 33.021465 38.476013 43.930565 46.963295 55.450573 58.483303 63.326942 68.781494 71.814224 79.995872 85.450424 90.294067 96.054214 100.89785 105.74149 108.77422 114.22878 119.07241 124.52696 129.98151 136.34166 141.7962"
             y="13.55"
             sodipodi:role="line"
             id="tspan92">•ElMovimientodelactuadorno</tspan><tspan
             x="0 5.4545498 10.29819 15.14183 19.985472 24.229111 29.072752 32.705482 35.738213 40.581852 49.06913 53.912773 59.367321 62.400051 69.97113 74.814774 81.785881 86.029526 91.48407 96.327713 101.78226 109.35334 117.535 126.02227 130.86591 137.83702 143.29158 146.32431 149.95703 152.98976 157.8334 160.86613 166.62628 172.08083"
             y="27.098801"
             sodipodi:role="line"
             id="tspan94">necesariamenteessuaveymásdifícilde</tspan><tspan
             x="0 5.4545498 10.29819 13.33092 16.363649 21.818199 26.66184 29.694656 35.138405 41.203865 46.658417 50.902058 53.934784 59.389336 62.422066 67.265709 74.236816 78.480453 81.513184 86.967735 92.422287 97.876839 100.90957 105.7532 109.38594 112.41867 117.87321 122.71686 128.1714 133.01505 137.25868"
             y="40.647598"
             sodipodi:role="line"
             id="tspan96">validar.Posiblessingularidades.</tspan><tspan
             x="199.114 208.37572 216.25209 224.43373 228.67738 236.24846 241.703 246.54665 250.17938 255.02301 260.47757 263.51028 266.54303 271.38666 278.95773 282.59048 287.43411 291.67776 297.13229 301.97595 305.00867 309.85233 316.21249 319.24521 324.69977 331.67084 334.70358 337.7363 346.22357 349.25632 352.28903 357.13269 364.10376 369.5694 375.02396"
             y="-0.027000001"
             sodipodi:role="line"
             id="tspan98">•Nosegarantizarespetarloslímitespor</tspan><tspan
             x="197.47806 200.51079 205.96535 208.99806 214.45262 220.21277 228.39441 233.23805 238.69261 241.72534 244.75807 249.00171 252.03444 257.48898 262.94354 267.78717 274.75827 279.6019 285.05646 288.08917 291.72189 299.293 304.74753 310.20209 315.65665 318.68936 324.14392"
             y="13.523"
             sodipodi:role="line"
             id="tspan100">jointocolisionesentrepuntos</tspan><tspan
             x="197.47806 200.51079 205.96535 208.99806 213.84171 217.47444 225.96172 230.80536 236.2599 239.29263 244.74719 248.99083"
             y="27.0718"
             sodipodi:role="line"
             id="tspan102">intermedios.</tspan></text>
      </g>
      <path
         d="M 708.66,5470.5 H 5385.83"
         style="fill:none;stroke:#000000;stroke-width:9.564;stroke-linecap:butt;stroke-linejoin:miter;stroke-miterlimit:10;stroke-dasharray:none;stroke-opacity:1"
         id="path106" />
      <g
         id="g108"
         transform="scale(10)">
        <text
           transform="matrix(1,0,0,-1,76.8441,540.075)"
           style="font-variant:normal;font-weight:normal;font-size:6.9738px;font-family:'Times New Roman';-inkscape-font-specification:TimesNewRomanPSMT;writing-mode:lr-tb;fill:#000000;fill-opacity:1;fill-rule:nonzero;stroke:none"
           id="text112"><tspan
             x="0"
             y="0"
             id="tspan110">a</tspan></text>
        <text
           transform="matrix(1,0,0,-1,80.43707,536.45898)"
           style="font-variant:normal;font-weight:normal;font-size:9.9626px;font-family:'Times New Roman';-inkscape-font-specification:TimesNewRomanPSMT;writing-mode:lr-tb;fill:#000000;fill-opacity:1;fill-rule:nonzero;stroke:none"
           id="text116"><tspan
             x="0 5.2601533 11.905208 14.67481 19.656111 24.079504 31.830408 36.253803 39.023403 41.793007 46.2164 53.130466 56.448013 61.429314 66.410614 70.834007 74.15155 78.027"
             y="0"
             sodipodi:role="line"
             id="tspan114">:CinemáticaInversa</tspan></text>
      </g>
    </g>
  </g>
</svg>
