<?xml version="1.0" encoding="UTF-8" standalone="no"?>
<svg
   xmlns:dc="http://purl.org/dc/elements/1.1/"
   xmlns:cc="http://creativecommons.org/ns#"
   xmlns:rdf="http://www.w3.org/1999/02/22-rdf-syntax-ns#"
   xmlns:svg="http://www.w3.org/2000/svg"
   xmlns="http://www.w3.org/2000/svg"
   xmlns:sodipodi="http://sodipodi.sourceforge.net/DTD/sodipodi-0.dtd"
   xmlns:inkscape="http://www.inkscape.org/namespaces/inkscape"
   width="120.77171mm"
   height="41.87331mm"
   viewBox="0 0 120.77171 41.87331"
   version="1.1"
   id="svg1116"
   inkscape:version="1.0.2-2 (e86c870879, 2021-01-15)"
   sodipodi:docname="tab_robotRequerimientos.svg">
  <defs
     id="defs1110" />
  <sodipodi:namedview
     id="base"
     pagecolor="#ffffff"
     bordercolor="#666666"
     borderopacity="1.0"
     inkscape:pageopacity="0.0"
     inkscape:pageshadow="2"
     inkscape:zoom="1.9281516"
     inkscape:cx="278.79298"
     inkscape:cy="55.980425"
     inkscape:document-units="mm"
     inkscape:current-layer="g1126"
     inkscape:document-rotation="0"
     showgrid="false"
     inkscape:window-width="1920"
     inkscape:window-height="1027"
     inkscape:window-x="-8"
     inkscape:window-y="-8"
     inkscape:window-maximized="1" />
  <metadata
     id="metadata1113">
    <rdf:RDF>
      <cc:Work
         rdf:about="">
        <dc:format>image/svg+xml</dc:format>
        <dc:type
           rdf:resource="http://purl.org/dc/dcmitype/StillImage" />
        <dc:title></dc:title>
      </cc:Work>
    </rdf:RDF>
  </metadata>
  <g
     inkscape:label="Capa 1"
     inkscape:groupmode="layer"
     id="layer1"
     transform="translate(27.701194,-328.30619)">
    <g
       id="g1126"
       inkscape:label="tablasConLatex"
       transform="matrix(0.35277777,0,0,-0.35277777,-75.265515,395.58426)">
      <g
         id="g1484"
         transform="translate(134.828,190.311)">
        <path
           d="M 0,0 H 342.345"
           style="fill:none;stroke:#000000;stroke-width:0.797;stroke-linecap:butt;stroke-linejoin:miter;stroke-miterlimit:10;stroke-dasharray:none;stroke-opacity:1"
           id="path1486" />
      </g>
      <text
         transform="matrix(1,0,0,-1,140.805,178.756)"
         style="font-variant:normal;font-weight:normal;font-size:9.9626px;font-family:'Times New Roman';-inkscape-font-specification:'Times New Roman, ';writing-mode:lr-tb;fill:#000000;fill-opacity:1;fill-rule:nonzero;stroke:none;font-style:normal;font-stretch:normal;"
         id="text1490"><tspan
           x="0 7.3334699 11.761846 17.020105 22.555326 26.983702 30.886053 33.653664 41.955498 44.723106 49.151482 54.407753 58.282207 63.263508 131.13371 138.3287 143.31001 147.21236 152.19366 156.62204 160.49649 164.92487 168.82721 171.59483 175.52507 179.39952 182.16714 186.59552 191.57681"
           y="0"
           sodipodi:role="line"
           id="tspan1488">RequerimientosCaracterísticas</tspan></text>
      <g
         id="g1492"
         transform="translate(134.828,173.205)">
        <path
           d="M 0,0 H 342.345"
           style="fill:none;stroke:#000000;stroke-width:0.498;stroke-linecap:butt;stroke-linejoin:miter;stroke-miterlimit:10;stroke-dasharray:none;stroke-opacity:1"
           id="path1494" />
      </g>
      <text
         transform="matrix(1,0,0,-1,140.805,161.799)"
         style="font-variant:normal;font-weight:bold;font-size:9.9626px;font-family:LMRoman10;-inkscape-font-specification:LMRoman10-Bold;writing-mode:lr-tb;fill:#0000ff;fill-opacity:1;fill-rule:nonzero;stroke:none"
         id="text1498"><tspan
           x="0 7.5277405 13.575039 19.144133 24.236017 28.691292 31.874342 36.329617 42.694721 52.875504 62.738476 70.570076 75.288368 80.53965 85.631538 88.814583 93.333618 96.51667 102.24517"
           y="0"
           sodipodi:role="line"
           id="tspan1496"
           style="font-style:normal;font-variant:normal;font-weight:bold;font-stretch:normal;font-family:'Times New Roman';-inkscape-font-specification:'Times New Roman,  Bold'">ExactitudyPrecisión</tspan></text>
      <text
         transform="matrix(1,0,0,-1,271.942,161.799)"
         style="font-variant:normal;font-weight:normal;font-size:9.9626px;font-family:LMRoman10;-inkscape-font-specification:LMRoman10-Regular;writing-mode:lr-tb;fill:#000000;fill-opacity:1;fill-rule:nonzero;stroke:none"
         id="text1504"><tspan
           x="0 6.5015926 11.482893 15.413138 18.180748 22.609125 25.376734 30.358034 39.2108 44.746021 48.648373 53.076748 58.335007 61.102619 69.41143 74.936684 79.365059 85.460182 89.362526 94.343826 100.14804 105.12934 109.00379 116.20477 122.98531 126.88766 130.79001 135.77132 142.99121 148.52643 152.42877 157.41008 165.71191 170.14029 175.67551 178.44312"
           y="0"
           sodipodi:role="line"
           id="tspan1500"
           style="font-style:normal;font-variant:normal;font-weight:normal;font-stretch:normal;font-family:'Times New Roman';-inkscape-font-specification:'Times New Roman, '">Posiciónpreviadelrobot.Errorpromedio</tspan><tspan
           x="0 4.9812999 7.7489104 12.73021 17.71151 21.032045 26.013346 28.780954 33.762257 42.0611 50.362934 58.664768"
           y="11.955"
           sodipodi:role="line"
           id="tspan1502"
           style="font-style:normal;font-variant:normal;font-weight:normal;font-stretch:normal;font-family:'Times New Roman';-inkscape-font-specification:'Times New Roman, '">0.54-3.21mm.</tspan></text>
      <text
         transform="matrix(1,0,0,-1,140.805,137.889)"
         style="font-variant:normal;font-weight:bold;font-size:9.9626px;font-family:LMRoman10;-inkscape-font-specification:LMRoman10-Bold;writing-mode:lr-tb;fill:#0000ff;fill-opacity:1;fill-rule:nonzero;stroke:none"
         id="text1508"><tspan
           x="0 6.2525277 12.617633 17.868919 23.915222 28.370497 37.447422 43.812527 52.87949 61.540974 64.724022 67.907074 77.454231 82.705521 88.751823 93.2071 98.776192 103.86807 107.05112 112.77962"
           y="0"
           sodipodi:role="line"
           id="tspan1506"
           style="font-style:normal;font-variant:normal;font-weight:bold;font-stretch:normal;font-family:'Times New Roman';-inkscape-font-specification:'Times New Roman,  Bold'">FuentedeAlimentación</tspan></text>
      <text
         transform="matrix(1,0,0,-1,271.942,137.889)"
         style="font-variant:normal;font-weight:normal;font-size:9.9626px;font-family:LMRoman10;-inkscape-font-specification:LMRoman10-Regular;writing-mode:lr-tb;fill:#000000;fill-opacity:1;fill-rule:nonzero;stroke:none"
         id="text1512"><tspan
           x="0 5.6766896 11.21191 15.640285 20.896553 24.771009 29.199385 36.447174 40.875553 43.643162 48.071537 52.499912 56.374367 60.276718 65.258018 70.793236 73.560852 77.989227 82.970528 90.218315 98.794121 103.2225 105.99011 110.41849 114.84686 118.72131 122.62366 125.39127 129.81966 134.80095 138.7312"
           y="0"
           sodipodi:role="line"
           id="tspan1510"
           style="font-style:normal;font-variant:normal;font-weight:normal;font-stretch:normal;font-family:'Times New Roman';-inkscape-font-specification:'Times New Roman, '">Fuenteseléctrónicasyeléctricas.</tspan></text>
      <text
         transform="matrix(1,0,0,-1,140.805,125.934)"
         style="font-variant:normal;font-weight:bold;font-size:9.9626px;font-family:LMRoman10;-inkscape-font-specification:LMRoman10-Bold;writing-mode:lr-tb;fill:#0000ff;fill-opacity:1;fill-rule:nonzero;stroke:none"
         id="text1516"><tspan
           x="0 8.5927429 11.775793 17.504288 20.68734 27.052444 32.30373"
           y="0"
           sodipodi:role="line"
           id="tspan1514"
           style="font-style:normal;font-variant:normal;font-weight:bold;font-stretch:normal;font-family:'Times New Roman';-inkscape-font-specification:'Times New Roman,  Bold'">Rigidez</tspan></text>
      <text
         transform="matrix(1,0,0,-1,271.942,125.934)"
         style="font-variant:normal;font-weight:normal;font-size:9.9626px;font-family:LMRoman10;-inkscape-font-specification:LMRoman10-Regular;writing-mode:lr-tb;fill:#000000;fill-opacity:1;fill-rule:nonzero;stroke:none"
         id="text1520"><tspan
           x="0 7.6104302 15.356352 20.337652 25.872871 30.854172 34.756523 37.524132 41.952507 47.487728 51.916103 54.683716 62.982559 65.750168 68.517784 73.776039 76.543655 81.524956 87.060173 95.36898 103.94479 112.24662 116.94897 122.20723 124.97484 133.27667 136.04428 140.47266 145.72893 149.60338 157.91219 161.84244 167.36769 172.08 177.05931 181.48769"
           y="0"
           sodipodi:role="line"
           id="tspan1518"
           style="font-style:normal;font-variant:normal;font-weight:normal;font-stretch:normal;font-family:'Times New Roman';-inkscape-font-specification:'Times New Roman, '">Deapariencialivianaymovimientosuave.</tspan></text>
      <text
         transform="matrix(1,0,0,-1,140.805,113.978)"
         style="font-variant:normal;font-weight:bold;font-size:9.9626px;font-family:LMRoman10;-inkscape-font-specification:LMRoman10-Bold;writing-mode:lr-tb;fill:#0000ff;fill-opacity:1;fill-rule:nonzero;stroke:none"
         id="text1524"><tspan
           x="0 6.3651052 11.616391 17.344887 23.709991 28.42828 31.61133 37.976437 43.545528"
           y="0"
           sodipodi:role="line"
           id="tspan1522"><tspan
   style="font-style:normal;font-variant:normal;font-weight:bold;font-stretch:normal;font-family:'Times New Roman';-inkscape-font-specification:'Times New Roman,  Bold'"
   id="tspan1850">Segurida</tspan>d</tspan></text>
      <text
         transform="matrix(0.98,0,0,-1,271.942,113.978)"
         style="font-variant:normal;font-weight:normal;font-size:9.9626px;font-family:LMRoman10;-inkscape-font-specification:LMRoman10-Regular;writing-mode:lr-tb;fill:#000000;fill-opacity:1;fill-rule:nonzero;stroke:none"
         id="text1528"><tspan
           x="0 7.4719501 15.730946 18.498556 23.754824 27.629278 32.057655 35.960003 39.004574 43.432949 47.3353 50.102913 57.282959 61.711334 66.692635 75.505547 79.933922 85.979233 90.407608 94.337852 99.87307 104.85437 109.28275 112.05036 120.30936 125.84457 133.55064 137.42509 141.32745 146.30875 151.84398 157.10422 160.14879 168.40779 173.94301 181.64908 186.63039 190.50484 194.40718 199.38849"
           y="0"
           sodipodi:role="line"
           id="tspan1526"
           style="font-style:normal;font-variant:normal;font-weight:normal;font-stretch:normal;font-family:'Times New Roman';-inkscape-font-specification:'Times New Roman, '">Nointerferirconelespaciodetrabajodeotros</tspan></text>
      <text
         transform="matrix(1,0,0,-1,271.942,102.023)"
         style="font-variant:normal;font-weight:normal;font-size:9.9626px;font-family:LMRoman10;-inkscape-font-specification:LMRoman10-Regular;writing-mode:lr-tb;fill:#000000;fill-opacity:1;fill-rule:nonzero;stroke:none"
         id="text1534"><tspan
           x="0 4.4283757 7.1959858 11.624362 19.926197 24.354572 29.61084 33.485294 38.466595 42.396839 49.587845 58.720562 63.148937 67.577309 72.558609 78.093834 80.861443 84.791687 93.093521 101.40233 106.92759 114.68347 120.2187 125.2 129.10234 134.08365 139.61887 147.91771 153.45293"
           y="0"
           sodipodi:role="line"
           id="tspan1530"
           style="font-style:normal;font-variant:normal;font-weight:normal;font-stretch:normal;font-family:'Times New Roman';-inkscape-font-specification:'Times New Roman, '">elementos.Mecanismodeparadade</tspan><tspan
           x="0 4.4283757 12.73021 17.158587 21.060936 26.042236 30.470612 36.005833 40.434208 43.20182 48.183117"
           y="11.955"
           sodipodi:role="line"
           id="tspan1532"
           style="font-style:normal;font-variant:normal;font-weight:normal;font-stretch:normal;font-family:'Times New Roman';-inkscape-font-specification:'Times New Roman, '">emergencia.</tspan></text>
      <text
         transform="matrix(1,0,0,-1,140.805,78.113)"
         style="font-variant:normal;font-weight:bold;font-size:9.9626px;font-family:LMRoman10;-inkscape-font-specification:LMRoman10-Bold;writing-mode:lr-tb;fill:#0000ff;fill-opacity:1;fill-rule:nonzero;stroke:none"
         id="text1538"><tspan
           x="0 7.5277405 12.046776 16.50205 21.753338 26.471624 29.654675 32.837727 36.020775 41.112663 46.681755 51.77364 54.956692 60.685184"
           y="0"
           sodipodi:role="line"
           id="tspan1536"
           style="font-style:normal;font-variant:normal;font-weight:bold;font-stretch:normal;font-family:'Times New Roman';-inkscape-font-specification:'Times New Roman,  Bold'">Esterilización</tspan></text>
      <text
         transform="matrix(1,0,0,-1,271.942,78.113)"
         style="font-variant:normal;font-weight:normal;font-size:9.9626px;font-family:LMRoman10;-inkscape-font-specification:LMRoman10-Regular;writing-mode:lr-tb;fill:#000000;fill-opacity:1;fill-rule:nonzero;stroke:none"
         id="text1542"><tspan
           x="0 7.6104302 15.356352 18.400923 23.382223 27.810598 30.578209 36.663364 39.430973 42.198586 50.50042 56.035641 58.803249 63.231625 67.660004 75.968811 79.899055 85.434273 91.238487 95.666862 99.569214 103.99759 106.7652 111.7465 117.83166 126.41743 131.95265 135.88289 144.18173 149.71695 154.69826 158.62851 164.16373 166.93134 170.80579 175.78709 178.5547 183.536 187.43835 190.20596 195.18726"
           y="0"
           sodipodi:role="line"
           id="tspan1540"><tspan
   style="font-style:normal;font-variant:normal;font-weight:normal;font-stretch:normal;font-family:'Times New Roman';-inkscape-font-specification:'Times New Roman, '"
   id="tspan1852">Defácillimpiezasupercialyusohospitalario</tspan>.</tspan></text>
      <g
         id="g1544"
         transform="translate(134.828,72.412)">
        <path
           d="M 0,0 H 342.345"
           style="fill:none;stroke:#000000;stroke-width:0.797;stroke-linecap:butt;stroke-linejoin:miter;stroke-miterlimit:10;stroke-dasharray:none;stroke-opacity:1"
           id="path1546" />
      </g>
    </g>
  </g>
</svg>
