<?xml version="1.0" encoding="UTF-8" standalone="no"?>
<svg
   xmlns:dc="http://purl.org/dc/elements/1.1/"
   xmlns:cc="http://creativecommons.org/ns#"
   xmlns:rdf="http://www.w3.org/1999/02/22-rdf-syntax-ns#"
   xmlns:svg="http://www.w3.org/2000/svg"
   xmlns="http://www.w3.org/2000/svg"
   xmlns:sodipodi="http://sodipodi.sourceforge.net/DTD/sodipodi-0.dtd"
   xmlns:inkscape="http://www.inkscape.org/namespaces/inkscape"
   width="239.008mm"
   height="71.456055mm"
   viewBox="0 0 239.008 71.456055"
   version="1.1"
   id="svg1121"
   inkscape:version="1.0.2-2 (e86c870879, 2021-01-15)"
   sodipodi:docname="tab_SIM2.svg">
  <defs
     id="defs1115" />
  <sodipodi:namedview
     id="base"
     pagecolor="#ffffff"
     bordercolor="#666666"
     borderopacity="1.0"
     inkscape:pageopacity="0.0"
     inkscape:pageshadow="2"
     inkscape:zoom="0.96407581"
     inkscape:cx="342.36305"
     inkscape:cy="149.5802"
     inkscape:document-units="mm"
     inkscape:current-layer="g1704"
     inkscape:document-rotation="0"
     showgrid="false"
     inkscape:window-width="1920"
     inkscape:window-height="1027"
     inkscape:window-x="-8"
     inkscape:window-y="-8"
     inkscape:window-maximized="1" />
  <metadata
     id="metadata1118">
    <rdf:RDF>
      <cc:Work
         rdf:about="">
        <dc:format>image/svg+xml</dc:format>
        <dc:type
           rdf:resource="http://purl.org/dc/dcmitype/StillImage" />
        <dc:title></dc:title>
      </cc:Work>
    </rdf:RDF>
  </metadata>
  <g
     inkscape:label="Capa 1"
     inkscape:groupmode="layer"
     id="layer1"
     transform="translate(25.17096,-17.487068)">
    <g
       id="g1694"
       transform="matrix(0,0.35277777,0.35277777,0,211.11307,137.98809)">
      <g
         id="g1704"
         transform="rotate(90,466.5825,-716.1855)">
        <text
           transform="scale(1,-1)"
           style="font-style:italic;font-variant:normal;font-size:11.9552px;font-family:'Times New Roman';-inkscape-font-specification:TimesNewRomanPS-ItalicMT;writing-mode:lr-tb;fill:#000000;fill-opacity:1;fill-rule:nonzero;stroke:none"
           id="text1716"
           x="515.69647"
           y="-83.673782"><tspan
             x="515.69647 523.0011 528.3092 532.95978 538.93738 542.26093 545.58447 551.56207 557.53967 563.51727 571.15668 577.13428 585.43115 591.40875 597.38635 602.03693 605.36047 610.66858 613.99213 619.96973 628.93616 632.2597 635.58325 641.56085 647.53845 653.85077 659.82837 665.80597 670.45654 679.42297 682.74646 688.72406 696.36346 701.67157 707.64917 712.29974 718.27734 725.91669 731.89429 736.10254 741.41064 747.38824 753.36584 758.01642 761.33997 766.64807 769.97162 775.94922 781.92682 787.90442 796.53607 799.85962 805.16772 811.14532 814.46887 823.42334 831.72021 837.69781 843.67542 848.32599 854.30359 860.28119 864.93176 868.25531 873.56342 876.88696 882.86456 888.84216 894.81976 903.45142 906.77496 912.08307 918.06067 921.38422 930.35065 935.65875 941.63635 950.60278 955.2533 961.2309 964.55444 969.86261 973.1861 979.1637 985.1413 991.1189 998.7583 1004.7358 1013.0328 1018.3409 1024.3185 1030.2961 1039.2626 1049.5559 1057.8529 1066.4845 1069.8081 1074.4586 1080.4363 1086.4138 1091.0645 1094.3879 1097.7115 1101.035 1106.3431 1115.3096 1121.2871 1129.5841 1135.5616 1138.8853 1144.8628 1150.8405 1155.491 1158.8146 1167.7809 1175.0856 1183.0597"
             y="-83.673782"
             sodipodi:role="line"
             id="tspan1714">ResultadosdeposiciónfinalparalascasospreposicionamientoyposposicionamientoconsujetadordecopaAyDispositivodebiopsiaFNA</tspan></text>
        <g
           id="g1718"
           transform="translate(20.903484,358.65978)">
          <path
             d="m 492.083,-279.261 h 677.503"
             style="fill:none;stroke:#000000;stroke-width:0.9564;stroke-linecap:butt;stroke-linejoin:miter;stroke-miterlimit:10;stroke-dasharray:none;stroke-opacity:1"
             id="path1720" />
        </g>
        <text
           transform="scale(1,-1)"
           style="font-variant:normal;font-weight:normal;font-size:11.9552px;font-family:'Times New Roman';-inkscape-font-specification:TimesNewRomanPSMT;writing-mode:lr-tb;fill:#000000;fill-opacity:1;fill-rule:nonzero;stroke:none"
           id="text1724"
           x="525.35449"
           y="-65.459785"><tspan
             x="525.35449"
             y="-65.459785"
             id="tspan1722">N</tspan></text>
        <text
           transform="scale(1,-1)"
           style="font-style:italic;font-variant:normal;font-weight:normal;font-size:7.9701px;font-family:CMSY8;-inkscape-font-specification:CMSY8;writing-mode:lr-tb;fill:#000000;fill-opacity:1;fill-rule:nonzero;stroke:none"
           id="text1728"
           x="533.98846"
           y="-69.797783"><tspan
             x="533.98846"
             y="-69.797783"
             id="tspan1726">◦</tspan></text>
        <text
           transform="scale(1,-1)"
           style="font-variant:normal;font-weight:normal;font-size:11.9552px;font-family:'Times New Roman';-inkscape-font-specification:TimesNewRomanPSMT;writing-mode:lr-tb;fill:#000000;fill-opacity:1;fill-rule:nonzero;stroke:none"
           id="text1732"
           x="583.93451"
           y="-65.459785"><tspan
             x="583.93451 590.5816 596.5592 601.20978 604.53326 609.84143 613.16498 619.14258 628.10895 635.41357 639.39465"
             y="-65.459785"
             sodipodi:role="line"
             id="tspan1730">PosiciónE-E</tspan></text>
        <text
           transform="scale(1,-1)"
           style="font-variant:normal;font-weight:normal;font-size:7.9701px;font-family:'Times New Roman';-inkscape-font-specification:TimesNewRomanPSMT;writing-mode:lr-tb;fill:#000000;fill-opacity:1;fill-rule:nonzero;stroke:none"
           id="text1736"
           x="646.69348"
           y="-69.797783"><tspan
             x="646.69348"
             y="-69.797783"
             id="tspan1734">a</tspan></text>
        <text
           transform="scale(1,-1)"
           style="font-variant:normal;font-weight:normal;font-size:11.9552px;font-family:'Times New Roman';-inkscape-font-specification:TimesNewRomanPSMT;writing-mode:lr-tb;fill:#000000;fill-opacity:1;fill-rule:nonzero;stroke:none"
           id="text1740"
           x="709.04346"
           y="-65.459785"><tspan
             x="709.04346 715.69055 721.66815 726.31873 729.64227 734.95038 738.27393 744.25153 753.20599 758.5141"
             y="-65.459785"
             sodipodi:role="line"
             id="tspan1738">Posiciónen</tspan></text>
        <text
           transform="scale(1,-1)"
           style="font-style:italic;font-variant:normal;font-weight:normal;font-size:11.9552px;font-family:CMMI12;-inkscape-font-specification:CMMI12;writing-mode:lr-tb;fill:#000000;fill-opacity:1;fill-rule:nonzero;stroke:none"
           id="text1744"
           x="767.48846"
           y="-65.459785"><tspan
             x="767.48846"
             y="-65.459785"
             id="tspan1742">h</tspan></text>
        <text
           transform="scale(1,-1)"
           style="font-style:italic;font-variant:normal;font-weight:normal;font-size:7.9701px;font-family:CMMI8;-inkscape-font-specification:CMMI8;writing-mode:lr-tb;fill:#000000;fill-opacity:1;fill-rule:nonzero;stroke:none"
           id="text1748"
           x="774.2265"
           y="-63.665783"><tspan
             x="774.2265"
             y="-63.665783"
             id="tspan1746">s</tspan></text>
        <text
           transform="scale(1,-1)"
           style="font-variant:normal;font-weight:normal;font-size:11.9552px;font-family:'Times New Roman';-inkscape-font-specification:TimesNewRomanPSMT;writing-mode:lr-tb;fill:#000000;fill-opacity:1;fill-rule:nonzero;stroke:none"
           id="text1752"
           x="822.31647"
           y="-65.459785"><tspan
             x="822.31647 829.62109 833.60217 837.58325 843.56085 877.60931 884.25635 890.23395 894.88452 898.20807 903.51617 906.83972 912.81732 921.78375 930.41541 936.39301 942.37061 945.69415"
             y="-65.459785"
             sodipodi:role="line"
             id="tspan1750">ErrorPosiciónAguja</tspan></text>
        <text
           transform="scale(1,-1)"
           style="font-variant:normal;font-weight:normal;font-size:7.9701px;font-family:'Times New Roman';-inkscape-font-specification:TimesNewRomanPSMT;writing-mode:lr-tb;fill:#000000;fill-opacity:1;fill-rule:nonzero;stroke:none"
           id="text1756"
           x="951.00549"
           y="-69.797783"><tspan
             x="951.00549"
             y="-69.797783"
             id="tspan1754">b</tspan></text>
        <text
           transform="scale(1,-1)"
           style="font-variant:normal;font-weight:normal;font-size:11.9552px;font-family:'Times New Roman';-inkscape-font-specification:TimesNewRomanPSMT;writing-mode:lr-tb;fill:#000000;fill-opacity:1;fill-rule:nonzero;stroke:none"
           id="text1762"
           x="982.46149"
           y="-65.459785"><tspan
             x="982.46149 989.10858 995.08618 999.73676 1003.0603 1008.3684 1011.692 1017.6696 1026.624 1032.6016 1038.5792 1041.9027 1047.2108 1050.5344 1053.8579 1059.8356 1093.1547 1100.4594 1104.4404 1108.4215 1114.399"
             y="-65.459785"
             sodipodi:role="line"
             id="tspan1758">PosiciónobjetivoError</tspan><tspan
             x="1148.4755 1155.7802 1161.7577 1165.0813 1168.4048"
             y="-65.081787"
             sodipodi:role="line"
             id="tspan1760">Éxito</tspan></text>
        <g
           id="g1764"
           transform="translate(20.903484,358.65978)">
          <path
             d="m 492.083,-299.894 h 677.503"
             style="fill:none;stroke:#000000;stroke-width:0.5978;stroke-linecap:butt;stroke-linejoin:miter;stroke-miterlimit:10;stroke-dasharray:none;stroke-opacity:1"
             id="path1766" />
        </g>
        <text
           transform="scale(1,-1)"
           style="font-variant:normal;font-weight:normal;font-size:11.9552px;font-family:'Times New Roman';-inkscape-font-specification:TimesNewRomanPSMT;writing-mode:lr-tb;fill:#000000;fill-opacity:1;fill-rule:nonzero;stroke:none"
           id="text1788"
           x="530.54248"
           y="-45.005783"><tspan
             x="530.54248 564.02899 568.01007 573.98767 579.96527 582.9541 588.9317 594.9093 597.89807 603.87567 609.85327 612.8421 618.8197 624.7973 627.78607 633.76367 639.74127 645.71887 651.69647 654.6853 660.6629 666.6405 690.53894 694.52002 700.49762 706.47522 709.46399 715.44159 721.41919 724.40802 730.38562 736.36322 739.35199 745.32959 751.30719 754.29602 760.27362 766.25122 772.22882 778.20642 781.19519 787.17279 793.15039 824.46106 830.43866 833.42749 839.40509 870.72772 874.7088 880.6864 886.664 889.65277 895.63037 901.60797 904.5968 910.5744 916.552 919.54077 925.51837 931.49597 934.4848 940.4624 946.44 952.4176 958.3952 978.31256 982.29364 988.27124 994.24884 997.23761 1003.2152 1009.1928 1012.1816 1018.1592 1024.1368 1027.1256 1033.1033 1039.0808 1042.0696 1048.0472 1054.0249 1060.0024 1065.9801 1095.2942 1101.2719 1104.2606 1110.2382 1158.4365"
             y="-45.005783"
             sodipodi:role="line"
             id="tspan1768">1[56.91,28.97,1081.67][56.91,28.97,1081.67]0.00[41.56,21.16,1092][41.56,21.16,1092]0.001</tspan><tspan
             x="530.54248 601.39551 605.37659 611.35419 614.34296 620.32056 623.30939 629.28699 697.52148 701.50256 707.48016 710.46899 716.44659 722.42419 725.41296 729.39404 735.37164 738.36047 744.33807 750.31567 753.30444 759.28204 765.25964 771.23724 774.22607 780.20367 786.18127 824.46179 830.43939 833.42822 839.40582 874.70953 878.69061 884.66821 887.65698 893.63458 899.61218 902.60101 906.58209 912.55969 915.54846 921.52606 927.50366 930.49249 936.47009 942.44769 948.42529 954.40289 982.29437 986.27545 992.25305 995.24182 1001.2194 1007.197 1010.1859 1014.1669 1020.1445 1023.1333 1029.111 1035.0885 1038.0773 1044.0549 1050.0326 1056.0101 1061.9878 1095.2949 1101.2726 1104.2614 1110.2389 1158.4365"
             y="-30.559784"
             sodipodi:role="line"
             id="tspan1770">2[0,0,0][3.48,-3.48,992.87]0.00[3.48,-3.48,1059][3.48,-3.48,1059]0.000</tspan><tspan
             x="530.54248 562.04443 566.02551 572.00311 577.98071 580.96954 586.94714 592.92474 595.91351 599.89459 605.87219 611.84979 614.83862 620.81622 626.79382 629.78259 635.76019 641.73779 647.71539 653.69299 656.68182 662.65942 668.63702 699.01514 702.99628 708.97388 714.95148 717.94025 721.92133 727.89893 733.87653 736.86536 742.84296 745.83173 751.80933 757.78693 763.76453 769.74213 772.73096 778.70856 784.68616 824.46106 830.43866 833.42749 839.40509 868.7312 872.71228 878.68988 884.66748 887.65625 893.63385 899.61145 902.60028 906.58136 912.55896 918.53656 921.52533 927.50293 933.48053 936.46936 942.44696 948.42456 954.40216 960.37976 976.31604 980.29712 986.27472 992.25232 995.24115 1001.2188 1007.1964 1010.1851 1014.1662 1020.1438 1026.1215 1029.1102 1035.0878 1041.0654 1044.0542 1050.0319 1056.0094 1061.9871 1067.9646 1095.2942 1101.2719 1104.2606 1110.2382 1158.4365"
             y="-16.113785"
             sodipodi:role="line"
             id="tspan1772">3[36.00,-50.30,1078.33][36,-50.3,1078.33]0.00[16.92,-23.64,1098][16.92,-23.64,1098]0.001</tspan><tspan
             x="530.54248 565.03326 569.01434 574.99194 580.96954 583.95831 589.93591 595.91351 598.90234 602.88342 608.86102 611.84979 617.82739 623.80499 626.79382 632.77142 638.74902 644.72662 650.70422 653.69299 659.67059 665.64819 691.54315 695.52423 701.50183 707.47943 710.46826 716.44586 722.42346 725.41223 729.39331 735.37091 738.35974 744.33734 750.31494 753.30371 759.28131 765.25891 771.23651 777.21411 780.20294 786.18054 792.15814 824.46106 830.43866 833.42749 839.40509 871.71997 875.70105 881.67865 887.65625 890.64508 896.62268 902.60028 905.58905 909.57013 915.54773 918.53656 924.51416 930.49176 933.48053 939.45813 945.43573 951.41333 957.39093 979.30481 983.28595 989.26355 995.24115 998.22992 1004.2075 1010.1851 1013.174 1017.155 1023.1326 1026.1215 1032.099 1038.0767 1041.0654 1047.043 1053.0206 1058.9982 1064.9758 1095.2942 1101.2719 1104.2606 1110.2382 1158.4365"
             y="-1.6677835"
             sodipodi:role="line"
             id="tspan1774">4[56.21,-4.75,1069.27][56.21,-4.75,1069.28]0.00[14.68,-1.24,1097][14.68,-1.24,1097]0.001</tspan><tspan
             x="530.54248 564.02899 568.01007 573.98767 579.96527 582.9541 588.9317 594.9093 597.89807 603.87567 609.85327 612.8421 618.8197 624.7973 627.78607 633.76367 639.74127 645.71887 651.69647 654.6853 660.6629 666.6405 693.52771 697.50879 703.48639 709.46399 712.45282 718.43042 721.41919 727.39679 733.37439 736.36322 742.34082 748.31842 751.30719 757.28479 763.26239 769.23999 775.21759 778.20642 784.18402 790.16162 824.46106 830.43866 833.42749 839.40509 873.71649 877.69757 883.67517 886.664 892.6416 898.6192 901.60797 907.58557 913.56317 916.552 922.5296 928.5072 931.49597 937.47357 943.45117 949.42877 955.40637 981.30133 985.28241 991.26001 994.24884 1000.2264 1006.204 1009.1928 1015.1704 1021.148 1024.1368 1030.1144 1036.092 1039.0808 1045.0585 1051.036 1057.0137 1062.9912 1095.2942 1101.2719 1104.2606 1110.2382 1158.4365"
             y="12.777216"
             sodipodi:role="line"
             id="tspan1776">5[14.49,53.63,1067.82][14.5,53.63,1067.82]0.00[5.72,21.16,1088][5.72,21.16,1088]0.001</tspan><tspan
             x="530.54248 601.39551 605.37659 611.35419 614.34296 620.32056 623.30939 629.28699 691.54352 695.5246 701.5022 707.4798 710.46857 716.44617 722.42377 725.4126 729.39368 735.37128 741.34888 744.33765 750.31525 753.30408 759.28168 765.25928 771.23688 777.21448 780.20325 786.18085 792.15845 824.46143 830.43903 833.4278 839.4054 871.72034 875.70142 881.67902 887.65662 890.64539 896.62299 899.61182 903.5929 909.5705 915.5481 918.53687 924.51447 930.49207 933.4809 939.4585 945.4361 951.4137 957.3913 979.30518 983.28625 989.26385 995.24146 998.23022 1004.2078 1007.1967 1011.1777 1017.1553 1023.1329 1026.1217 1032.0994 1038.0769 1041.0657 1047.0433 1053.021 1058.9985 1064.9762 1095.2946 1101.2721 1104.261 1110.2385 1158.4365"
             y="27.223211"
             sodipodi:role="line"
             id="tspan1778">6[0,0,0][33.18,-29.7,1049.81]0.00[21.4,-19.16,1064][21.4,-19.16,1064]0.000</tspan><tspan
             x="530.54248 601.39551 605.37659 611.35419 614.34296 620.32056 623.30939 629.28699 688.55548 692.53656 698.51416 704.49176 707.48059 713.45819 719.43579 722.42456 726.40564 732.38324 738.36084 741.34967 747.32727 753.30487 756.29364 762.27124 768.24884 774.22644 780.20404 783.19287 789.17047 795.14807 824.46222 830.43982 833.42859 839.40619 868.7323 872.71338 878.69098 884.66858 887.65741 893.63501 899.61261 902.60138 906.58246 912.56006 918.53766 921.52649 927.50409 933.48169 936.47046 942.44806 948.42566 954.40326 960.38086 976.31714 980.29822 986.27582 992.25342 995.24225 1001.2198 1007.1974 1010.1862 1014.1673 1020.1449 1026.1226 1029.1113 1035.0889 1041.0665 1044.0553 1050.033 1056.0105 1061.9882 1067.9657 1095.2953 1101.2729 1104.2617 1110.2394 1158.4365"
             y="41.66922"
             sodipodi:role="line"
             id="tspan1780">7[0,0,0][30.95,-30.95,1048.19]0.00[14.68,-14.68,1062][14.68,-14.68,1062]0.000</tspan><tspan
             x="530.54248 560.04791 564.02899 568.01007 573.98767 579.96527 582.9541 588.9317 594.9093 597.89807 601.87915 607.85675 613.83435 616.82318 622.80078 628.77838 631.76715 637.74475 643.72235 649.69995 655.67755 658.66638 664.64398 670.62158 686.55786 690.53894 694.52002 700.49762 706.47522 709.46399 715.44159 721.41919 724.40802 728.3891 734.3667 740.3443 743.33307 749.31067 755.28827 758.2771 764.2547 770.2323 776.2099 782.1875 785.17627 791.15393 797.13153 824.46106 830.43866 833.42749 839.40509 869.73541 873.71649 877.69757 883.67517 889.65277 892.6416 898.6192 901.60797 905.58905 911.56665 917.54425 920.53308 926.51068 932.48828 935.47705 941.45465 947.43225 953.40985 959.38745 977.32025 981.30133 985.28241 991.26001 997.23761 1000.2264 1006.204 1009.1928 1013.174 1019.1515 1025.1292 1028.1179 1034.0955 1040.0731 1043.0619 1049.0396 1055.0171 1060.9948 1066.9723 1095.2942 1101.2719 1104.2606 1110.2382 1158.4365"
             y="56.115219"
             sodipodi:role="line"
             id="tspan1782">8[-22.37,-47.46,1062.69][-22.37,-47.46,1062.68]0.00[-12.2,-25.88,1077][-12.2,-25.88,1077]0.001</tspan><tspan
             x="530.54248 560.04791 564.02899 568.01007 573.98767 579.96527 582.9541 588.9317 594.9093 597.89807 601.87915 607.85675 613.83435 616.82318 622.80078 628.77838 631.76715 637.74475 643.72235 649.69995 655.67755 658.66638 664.64398 670.62158 694.02985 698.01093 701.992 707.9696 713.9472 716.93604 722.91364 728.89124 731.88 735.86108 741.83868 747.81628 750.80511 756.78271 762.76031 765.74908 771.72668 777.70428 783.68188 789.65948 824.46106 830.43866 833.42749 839.40509 869.73541 873.71649 877.69757 883.67517 889.65277 892.6416 898.6192 901.60797 905.58905 911.56665 917.54425 920.53308 926.51068 932.48828 935.47705 941.45465 947.43225 953.40985 959.38745 977.32025 981.30133 985.28241 991.26001 997.23761 1000.2264 1006.204 1009.1928 1013.174 1019.1515 1025.1292 1028.1179 1034.0955 1040.0731 1043.0619 1049.0396 1055.0171 1060.9948 1066.9723 1095.2942 1101.2719 1104.2606 1110.2382 1158.4365"
             y="70.561218"
             sodipodi:role="line"
             id="tspan1784">9[-34.06,-40.94,1064.00][-34.07,-40.94,1064]0.00[-23.4,-28.12,1074][-23.4,-28.12,1074]0.001</tspan><tspan
             x="527.5545 533.5321 601.39551 605.37659 611.35419 614.34296 620.32056 623.30939 629.28699 688.55548 692.53656 698.51416 704.49176 707.48059 713.45819 719.43579 722.42456 726.40564 732.38324 738.36084 741.34967 747.32727 753.30487 756.29364 762.27124 768.24884 774.22644 780.20404 783.19287 789.17047 795.14807 824.46222 830.43982 833.42859 839.40619 868.7323 872.71338 878.69098 884.66858 887.65741 893.63501 899.61261 902.60138 906.58246 912.56006 918.53766 921.52649 927.50409 933.48169 936.47046 942.44806 948.42566 954.40326 960.38086 976.31714 980.29822 986.27582 992.25342 995.24225 1001.2198 1007.1974 1010.1862 1014.1673 1020.1449 1026.1226 1029.1113 1035.0889 1041.0665 1044.0553 1050.033 1056.0105 1061.9882 1067.9657 1095.2953 1101.2729 1104.2617 1110.2394 1158.4365"
             y="85.00621"
             sodipodi:role="line"
             id="tspan1786">10[0,0,0][50.73,-35.41,1079.24]0.00[37.08,-25.88,1098][37.08,-25.88,1098]0.000</tspan></text>
        <g
           id="g1790"
           transform="translate(20.903484,358.65978)">
          <path
             d="m 492.083,-450.539 h 677.503"
             style="fill:none;stroke:#000000;stroke-width:0.9564;stroke-linecap:butt;stroke-linejoin:miter;stroke-miterlimit:10;stroke-dasharray:none;stroke-opacity:1"
             id="path1792" />
        </g>
        <text
           transform="scale(1,-1)"
           style="font-variant:normal;font-weight:normal;font-size:6.9738px;font-family:'Times New Roman';-inkscape-font-specification:TimesNewRomanPSMT;writing-mode:lr-tb;fill:#000000;fill-opacity:1;fill-rule:nonzero;stroke:none"
           id="text1796"
           x="518.96448"
           y="104.83221"><tspan
             x="518.96448"
             y="104.83221"
             id="tspan1794">a</tspan></text>
        <text
           transform="scale(1,-1)"
           style="font-variant:normal;font-weight:normal;font-size:9.9626px;font-family:'Times New Roman';-inkscape-font-specification:TimesNewRomanPSMT;writing-mode:lr-tb;fill:#000000;fill-opacity:1;fill-rule:nonzero;stroke:none"
           id="text1800"
           x="522.5575"
           y="108.44721"><tspan
             x="522.5575 527.81775 533.35693 538.33826 542.21368 544.98328 549.40668 552.17627 557.15759 564.62952 567.94708 570.71667 575.698 580.1214 585.38165 590.36292 594.78632 600.04657 604.46997 607.78754 612.21094 616.63434 619.40393 624.38525 630.19342 633.51099 636.28058 641.26184 645.68524 650.9455 654.26306 660.35022 663.66772 669.75488 675.56311 680.54437 684.96777 688.84326 693.82452"
             y="108.44721"
             sodipodi:role="line"
             id="tspan1798">:Posiciónfinaldelefectorfinal(E-E)desde</tspan></text>
        <text
           transform="scale(1,-1)"
           style="font-style:italic;font-variant:normal;font-weight:normal;font-size:9.9626px;font-family:CMSY10;-inkscape-font-specification:CMSY10;writing-mode:lr-tb;fill:#000000;fill-opacity:1;fill-rule:nonzero;stroke:none"
           id="text1804"
           x="700.71246"
           y="108.44721"><tspan
             x="700.71246"
             y="108.44721"
             id="tspan1802">{</tspan></text>
        <text
           transform="scale(1,-1)"
           style="font-variant:normal;font-weight:normal;font-size:9.9626px;font-family:CMR10;-inkscape-font-specification:CMR10;writing-mode:lr-tb;fill:#000000;fill-opacity:1;fill-rule:nonzero;stroke:none"
           id="text1808"
           x="705.69446"
           y="108.44721"><tspan
             x="705.69446"
             y="108.44721"
             id="tspan1806">5</tspan></text>
        <text
           transform="scale(1,-1)"
           style="font-style:italic;font-variant:normal;font-weight:normal;font-size:9.9626px;font-family:CMSY10;-inkscape-font-specification:CMSY10;writing-mode:lr-tb;fill:#000000;fill-opacity:1;fill-rule:nonzero;stroke:none"
           id="text1812"
           x="710.67548"
           y="108.44721"><tspan
             x="710.67548"
             y="108.44721"
             id="tspan1810">}</tspan></text>
        <text
           transform="scale(1,-1)"
           style="font-variant:normal;font-weight:normal;font-size:9.9626px;font-family:'Times New Roman';-inkscape-font-specification:TimesNewRomanPSMT;writing-mode:lr-tb;fill:#000000;fill-opacity:1;fill-rule:nonzero;stroke:none"
           id="text1816"
           x="718.14746"
           y="108.44721"><tspan
             x="718.14746 722.57086 730.03284 735.01416 738.33173 742.75513 747.73639 752.71771 756.59314 759.36273 763.78613 766.55579 771.53705 776.51837 780.94177 788.69269 791.46228 795.88568 800.86694 803.63654 808.61786"
             y="108.44721"
             sodipodi:role="line"
             id="tspan1814">enpreposicionamiento.</tspan></text>
        <text
           transform="scale(1,-1)"
           style="font-variant:normal;font-weight:normal;font-size:6.9738px;font-family:'Times New Roman';-inkscape-font-specification:TimesNewRomanPSMT;writing-mode:lr-tb;fill:#000000;fill-opacity:1;fill-rule:nonzero;stroke:none"
           id="text1820"
           x="813.59546"
           y="104.83221"><tspan
             x="813.59546"
             y="104.83221"
             id="tspan1818">b</tspan></text>
        <text
           transform="scale(1,-1)"
           style="font-variant:normal;font-weight:normal;font-size:9.9626px;font-family:'Times New Roman';-inkscape-font-specification:TimesNewRomanPSMT;writing-mode:lr-tb;fill:#000000;fill-opacity:1;fill-rule:nonzero;stroke:none"
           id="text1824"
           x="817.58051"
           y="108.44721"><tspan
             x="817.58051 822.83075 828.37 833.35126 837.22675 839.99634 844.41974 847.18933 852.17065 859.64258 864.06598 871.5379 876.51923 881.50055 885.37598 890.3573 895.33856 899.21405 901.98364 906.40704 909.17664 914.15796 919.13922 923.56262 931.31354 934.08313 938.50653 943.48785 946.25745 951.23871"
             y="108.44721"
             sodipodi:role="line"
             id="tspan1822">:Posiciónenposposicionamiento.</tspan></text>
      </g>
    </g>
  </g>
</svg>
