<?xml version="1.0" encoding="UTF-8" standalone="no"?>
<svg
   xmlns:dc="http://purl.org/dc/elements/1.1/"
   xmlns:cc="http://creativecommons.org/ns#"
   xmlns:rdf="http://www.w3.org/1999/02/22-rdf-syntax-ns#"
   xmlns:svg="http://www.w3.org/2000/svg"
   xmlns="http://www.w3.org/2000/svg"
   xmlns:sodipodi="http://sodipodi.sourceforge.net/DTD/sodipodi-0.dtd"
   xmlns:inkscape="http://www.inkscape.org/namespaces/inkscape"
   width="257.00003mm"
   height="71.985222mm"
   viewBox="0 0 257.00003 71.985222"
   version="1.1"
   id="svg2212"
   inkscape:version="1.0.2-2 (e86c870879, 2021-01-15)"
   sodipodi:docname="tab_SIM3.svg">
  <defs
     id="defs2206" />
  <sodipodi:namedview
     id="base"
     pagecolor="#ffffff"
     bordercolor="#666666"
     borderopacity="1.0"
     inkscape:pageopacity="0.0"
     inkscape:pageshadow="2"
     inkscape:zoom="0.68170455"
     inkscape:cx="237.3292"
     inkscape:cy="-23.012157"
     inkscape:document-units="mm"
     inkscape:current-layer="g2795"
     inkscape:document-rotation="0"
     showgrid="false"
     inkscape:window-width="1920"
     inkscape:window-height="1027"
     inkscape:window-x="-8"
     inkscape:window-y="-8"
     inkscape:window-maximized="1">
    <sodipodi:guide
       position="-166.11268,312.16211"
       orientation="0,793.70079"
       id="guide3297" />
    <sodipodi:guide
       position="43.887317,312.16211"
       orientation="1122.5197,0"
       id="guide3299" />
    <sodipodi:guide
       position="43.887317,15.16211"
       orientation="0,-793.70079"
       id="guide3301" />
    <sodipodi:guide
       position="-166.11268,15.16211"
       orientation="-1122.5197,0"
       id="guide3303" />
  </sodipodi:namedview>
  <metadata
     id="metadata2209">
    <rdf:RDF>
      <cc:Work
         rdf:about="">
        <dc:format>image/svg+xml</dc:format>
        <dc:type
           rdf:resource="http://purl.org/dc/dcmitype/StillImage" />
        <dc:title></dc:title>
      </cc:Work>
    </rdf:RDF>
  </metadata>
  <g
     inkscape:label="Capa 1"
     inkscape:groupmode="layer"
     id="layer1"
     transform="translate(-166.11268,-240.17689)">
    <g
       id="g2785"
       transform="matrix(0,0.35277777,0.35277777,0,418.76683,150.42244)">
      <g
         id="g2795"
         transform="rotate(90,466.5825,-716.1855)">
        <text
           transform="scale(1,-1)"
           style="font-style:italic;font-variant:normal;font-size:11.9552px;font-family:'Times New Roman';-inkscape-font-specification:TimesNewRomanPS-ItalicMT;writing-mode:lr-tb;fill:#000000;fill-opacity:1;fill-rule:nonzero;stroke:none"
           id="text2927"
           x="497.202"
           y="512.32599"><tspan
             x="497.202 504.50665 509.81476 514.46533 520.44293 523.76648 527.09003 533.06763 539.04523 545.02283 552.39917 558.37677 566.42261 572.40021 577.05078 580.37433 585.68243 591.66003 594.98358 600.96118 606.26929 609.59283 615.57043 624.2738 627.59735 630.9209 636.8985 642.8761 648.93738 654.91498 660.89258 665.54315 674.25854 677.58203 683.55963 690.93604 696.24414 702.22174 706.87231 712.84991 720.23822 726.21582 730.43597 735.74408 741.72168 747.69928 752.34985 755.67346 760.98157 764.30511 770.28271 776.26031 782.23792 790.86957 794.19312 799.50122 805.47882 808.80237 817.50574 825.53961 831.51721 837.49481 842.14539 848.12299 854.10059 858.75116 862.07471 867.38281 870.70636 876.68396 882.66156 888.63916 897.27081 900.59436 905.90247 911.88007 915.20361 923.91895 929.22705 935.20465 943.92004 948.57056 954.54816 957.8717 963.17987 966.50336 972.48096 978.45856 984.43616 991.81262 997.79022 1005.836 1011.1441 1017.1217 1023.0992 1031.8146 1041.8451 1049.8909 1058.5226 1061.8461 1066.4967 1072.4742 1078.4519 1083.1024 1086.426 1089.7495 1093.0731 1098.3812 1107.0966 1113.0741 1121.108 1127.0856 1130.4092 1136.3867 1142.3644 1147.0149 1150.3385 1159.0538 1166.3584 1174.3325"
             y="512.32599"
             sodipodi:role="line"
             id="tspan2925">ResultadosdeorientaciónfinalparalascasospreposicionamientoyposposicionamientoconsujetadordecopaAyDispositivodebiopsiaFNA</tspan></text>
        <g
           id="g2929">
          <path
             d="m 466.583,-518.1 h 728.504"
             style="fill:none;stroke:#000000;stroke-width:0.9564;stroke-linecap:butt;stroke-linejoin:miter;stroke-miterlimit:10;stroke-dasharray:none;stroke-opacity:1"
             id="path2931" />
        </g>
        <text
           transform="matrix(1,0,0,-1,478.951,-532.04)"
           style="font-variant:normal;font-weight:normal;font-size:11.9552px;font-family:'Times New Roman';-inkscape-font-specification:TimesNewRomanPSMT;writing-mode:lr-tb;fill:#000000;fill-opacity:1;fill-rule:nonzero;stroke:none"
           id="text2935"><tspan
             x="0"
             y="0"
             id="tspan2933">N</tspan></text>
        <text
           transform="matrix(1,0,0,-1,487.584,-527.701)"
           style="font-style:italic;font-variant:normal;font-weight:normal;font-size:7.9701px;font-family:CMSY8;-inkscape-font-specification:CMSY8;writing-mode:lr-tb;fill:#000000;fill-opacity:1;fill-rule:nonzero;stroke:none"
           id="text2939"><tspan
             x="0"
             y="0"
             id="tspan2937">◦</tspan></text>
        <text
           transform="matrix(1,0,0,-1,527.265,-532.04)"
           style="font-variant:normal;font-weight:normal;font-size:11.9552px;font-family:'Times New Roman';-inkscape-font-specification:TimesNewRomanPSMT;writing-mode:lr-tb;fill:#000000;fill-opacity:1;fill-rule:nonzero;stroke:none"
           id="text2943"><tspan
             x="0 8.6316547 12.612736 15.936281 21.24439 27.221991 30.545536 35.853645 41.161755 44.485298 50.462898 59.429298 66.733925 70.715012"
             y="0"
             sodipodi:role="line"
             id="tspan2941">OrientaciónE-E</tspan></text>
        <text
           transform="matrix(1,0,0,-1,605.272,-527.701)"
           style="font-variant:normal;font-weight:normal;font-size:7.9701px;font-family:'Times New Roman';-inkscape-font-specification:TimesNewRomanPSMT;writing-mode:lr-tb;fill:#000000;fill-opacity:1;fill-rule:nonzero;stroke:none"
           id="text2947"><tspan
             x="0"
             y="0"
             id="tspan2945">a</tspan></text>
        <text
           transform="matrix(1,0,0,-1,647.09,-532.04)"
           style="font-variant:normal;font-weight:normal;font-size:11.9552px;font-family:'Times New Roman';-inkscape-font-specification:TimesNewRomanPSMT;writing-mode:lr-tb;fill:#000000;fill-opacity:1;fill-rule:nonzero;stroke:none"
           id="text2951"><tspan
             x="0 8.6316547 12.612736 15.936281 21.24439 27.221991 30.545536 35.853645 41.161755 44.485298 50.462898 59.429298 64.737411"
             y="0"
             sodipodi:role="line"
             id="tspan2949">Orientaciónen</tspan></text>
        <text
           transform="matrix(1,0,0,-1,720.783,-532.04)"
           style="font-style:italic;font-variant:normal;font-weight:normal;font-size:11.9552px;font-family:CMMI12;-inkscape-font-specification:CMMI12;writing-mode:lr-tb;fill:#000000;fill-opacity:1;fill-rule:nonzero;stroke:none"
           id="text2955"><tspan
             x="0"
             y="0"
             id="tspan2953">h</tspan></text>
        <text
           transform="matrix(1,0,0,-1,727.521,-533.833)"
           style="font-style:italic;font-variant:normal;font-weight:normal;font-size:7.9701px;font-family:CMMI8;-inkscape-font-specification:CMMI8;writing-mode:lr-tb;fill:#000000;fill-opacity:1;fill-rule:nonzero;stroke:none"
           id="text2959"><tspan
             x="0"
             y="0"
             id="tspan2957">s</tspan></text>
        <text
           transform="matrix(1,0,0,-1,765.346,-532.04)"
           style="font-variant:normal;font-weight:normal;font-size:11.9552px;font-family:'Times New Roman';-inkscape-font-specification:TimesNewRomanPSMT;writing-mode:lr-tb;fill:#000000;fill-opacity:1;fill-rule:nonzero;stroke:none"
           id="text2963"><tspan
             x="0 7.3046274 11.285708 15.26679 21.24439 54.647221 63.278873 67.259956 70.583504 75.891609 81.869209 85.192757 90.500862 95.808975 99.132515 105.11012 114.07652 120.05412 128.35103 136.98268 142.96028 148.93788 152.26143"
             y="0"
             sodipodi:role="line"
             id="tspan2961">ErrorOrientacióndeAguja</tspan></text>
        <text
           transform="matrix(1,0,0,-1,922.902,-527.701)"
           style="font-variant:normal;font-weight:normal;font-size:7.9701px;font-family:'Times New Roman';-inkscape-font-specification:TimesNewRomanPSMT;writing-mode:lr-tb;fill:#000000;fill-opacity:1;fill-rule:nonzero;stroke:none"
           id="text2967"><tspan
             x="0"
             y="0"
             id="tspan2965">b</tspan></text>
        <text
           transform="matrix(1,0,0,-1,954.042,-532.04)"
           style="font-variant:normal;font-weight:normal;font-size:11.9552px;font-family:'Times New Roman';-inkscape-font-specification:TimesNewRomanPSMT;writing-mode:lr-tb;fill:#000000;fill-opacity:1;fill-rule:nonzero;stroke:none"
           id="text2973"><tspan
             x="0 8.6316547 12.612736 15.936281 21.24439 27.221991 30.545536 35.853645 41.161755 44.485298 50.462898 59.429298 65.406898 73.703812 77.684891 83.662491 88.313065 93.62117 97.602249 102.91036 106.23391 112.21151 145.85344 153.15807 157.13914 161.12022 167.09782"
             y="0"
             sodipodi:role="line"
             id="tspan2969">OrientacióndeInserciónError</tspan><tspan
             x="201.172 208.47662 214.45422 217.77777 221.10132"
             y="0.37799999"
             sodipodi:role="line"
             id="tspan2971">Éxito</tspan></text>
        <g
           id="g2975">
          <path
             d="m 466.583,-538.734 h 728.504"
             style="fill:none;stroke:#000000;stroke-width:0.5978;stroke-linecap:butt;stroke-linejoin:miter;stroke-miterlimit:10;stroke-dasharray:none;stroke-opacity:1"
             id="path2977" />
        </g>
        <text
           transform="matrix(1,0,0,-1,484.139,-552.494)"
           style="font-variant:normal;font-weight:normal;font-size:11.9552px;font-family:'Times New Roman';-inkscape-font-specification:TimesNewRomanPSMT;writing-mode:lr-tb;fill:#000000;fill-opacity:1;fill-rule:nonzero;stroke:none"
           id="text2999"><tspan
             x="0 41.807335 45.788418 49.769497 55.747097 58.735897 64.713501 70.691101 73.679901 77.66098 83.63858 86.62738 92.60498 98.582581 101.57138 107.54898 110.53778 116.51538 122.49298 163.03999 167.02109 171.00217 176.97977 179.96857 185.94617 191.92377 194.91257 198.89365 204.87125 207.86005 213.83765 219.81525 222.80405 228.78165 231.77045 237.74805 243.72565 283.35715 289.33475 292.32355 298.30115 347.21701 351.19809 355.17917 361.15677 364.14557 370.12317 376.10077 379.08957 383.07065 389.04825 392.03705 398.01465 403.99225 406.98105 412.95865 415.94745 421.92505 427.90265 486.65701 490.63809 494.61917 500.59677 503.58557 509.56317 515.54077 518.52954 522.51062 528.48822 531.47705 537.45465 543.43225 546.42102 552.39862 555.38745 561.36505 567.34265 617.90198 623.87958 626.86841 632.84601 681.03699"
             y="0"
             sodipodi:role="line"
             id="tspan2979">1[-0.76,-0.39,0.51][-0.76,-0.39,0.51]0.00[-0.76,-0.39,0.51][-0.76,-0.39,0.51]0.001</tspan><tspan
             x="0 68.210999 72.192085 78.169685 81.158485 87.136078 90.124878 96.102478 189.437 193.41808 199.39568 202.38448 208.36208 211.35088 217.32848 283.358 289.3356 292.3244 298.302 373.61401 377.59509 383.57269 386.56149 392.53909 395.52789 401.50549 513.05402 517.0351 523.0127 526.00146 531.97906 534.9679 540.9455 617.90198 623.87958 626.86841 632.84601 681.03699"
             y="14.445"
             sodipodi:role="line"
             id="tspan2981">2[0,0,1][0,0,1]0.00[0,0,1][0,0,1]0.000</tspan><tspan
             x="0 49.782001 53.763081 57.744164 63.721764 66.710564 72.688164 75.676964 81.654564 84.643364 90.620964 93.609764 99.587364 102.57616 108.55376 114.53136 171.008 174.98907 178.97017 184.94777 187.93657 193.91417 196.90297 202.88057 205.86937 211.84697 214.83577 220.81337 223.80217 229.77977 235.75737 283.358 289.3356 292.3244 298.302 355.185 359.16608 363.14716 369.12476 372.11356 378.09116 381.07996 387.05756 390.04636 396.02396 399.01276 404.99036 407.97916 413.95676 419.93436 494.625 498.60608 502.58716 508.56476 511.55356 517.53119 520.51996 526.49756 529.48639 535.46399 538.45276 544.43036 547.41919 553.39679 559.37439 617.901 623.8786 626.86737 632.84497 681.03699"
             y="28.891001"
             sodipodi:role="line"
             id="tspan2983">3[-0.5,0.7,0.51][-0.5,0.7,0.51]0.00[-0.5,0.7,0.51][-0.5,0.7,0.51]0.001</tspan><tspan
             x="0 43.804001 47.78508 51.766163 57.743763 60.732563 66.710167 72.687759 75.676559 81.65416 84.64296 90.62056 96.59816 99.58696 105.56456 108.55336 114.53096 120.50856 165.03101 169.01208 172.99316 178.97076 181.95956 187.93716 193.91476 196.90356 202.88116 205.86996 211.84756 217.82516 220.81396 226.79156 229.78036 235.75797 241.73557 283.358 289.3356 292.3244 298.302 349.207 353.18808 357.16916 363.14676 366.13556 372.11316 378.09076 381.07956 387.05716 390.04596 396.02356 402.00116 404.98996 410.96756 413.95636 419.93396 425.91156 488.647 492.62808 496.60916 502.58676 505.57556 511.55316 517.53076 520.51959 526.49719 529.48596 535.46356 541.44116 544.42999 550.40759 553.39636 559.37396 565.35156 617.90198 623.87958 626.86841 632.84601 681.03699"
             y="43.337002"
             sodipodi:role="line"
             id="tspan2985">4[-0.83,0.07,0.55][-0.83,0.07,0.55]0.00[-0.83,0.07,0.55][-0.83,0.07,0.55]0.001</tspan><tspan
             x="0 41.807335 45.788418 49.769497 55.747097 58.735897 64.713501 70.691101 73.679901 77.66098 83.63858 86.62738 92.60498 98.582581 101.57138 107.54898 110.53778 116.51538 122.49298 163.03999 167.02109 171.00217 176.97977 179.96857 185.94617 191.92377 194.91257 198.89365 204.87125 207.86005 213.83765 219.81525 222.80405 228.78165 231.77045 237.74805 243.72565 283.35715 289.33475 292.32355 298.30115 347.21701 351.19809 355.17917 361.15677 364.14557 370.12317 376.10077 379.08957 383.07065 389.04825 392.03705 398.01465 403.99225 406.98105 412.95865 415.94745 421.92505 427.90265 486.65701 490.63809 494.61917 500.59677 503.58557 509.56317 515.54077 518.52954 522.51062 528.48822 531.47705 537.45465 543.43225 546.42102 552.39862 555.38745 561.36505 567.34265 617.90198 623.87958 626.86841 632.84601 681.03699"
             y="57.783001"
             sodipodi:role="line"
             id="tspan2987">5[-0.22,-0.83,0.51][-0.22,-0.83,0.51]0.00[-0.22,-0.83,0.51][-0.22,-0.83,0.51]0.001</tspan><tspan
             x="0 46.792999 50.774082 54.755165 60.732761 63.721561 69.699165 75.676765 78.665565 84.643166 87.631966 93.609566 96.598366 102.57597 105.56477 111.54237 117.51997 168.02 172.00108 175.98216 181.95976 184.94856 190.92616 196.90376 199.89256 205.87016 208.85896 214.83656 217.82536 223.80296 226.79176 232.76936 238.74696 283.358 289.3356 292.3244 298.302 352.19601 356.17709 360.15817 366.13577 369.12457 375.10217 381.07977 384.06857 390.04617 393.03497 399.01257 402.00137 407.97897 410.96777 416.94537 422.92297 491.63599 495.6171 499.59818 505.57578 508.56458 514.54218 520.51978 523.50854 529.48615 532.47498 538.45258 541.44135 547.41895 550.40778 556.38538 562.36298 617.90198 623.87958 626.86841 632.84601 681.03699"
             y="72.228996"
             sodipodi:role="line"
             id="tspan2989">6[-0.55,0.5,0.67][-0.55,0.5,0.67]0.00[-0.55,0.5,0.67][-0.55,0.5,0.67]0.000</tspan><tspan
             x="0 43.804001 47.78508 51.766163 57.743763 60.732563 66.710167 72.687759 75.676559 81.65416 84.64296 90.62056 96.59816 99.58696 105.56456 108.55336 114.53096 120.50856 165.03101 169.01208 172.99316 178.97076 181.95956 187.93716 193.91476 196.90356 202.88116 205.86996 211.84756 217.82516 220.81396 226.79156 229.78036 235.75797 241.73557 283.358 289.3356 292.3244 298.302 349.207 353.18808 357.16916 363.14676 366.13556 372.11316 378.09076 381.07956 387.05716 390.04596 396.02356 402.00116 404.98996 410.96756 413.95636 419.93396 425.91156 488.647 492.62808 496.60916 502.58676 505.57556 511.55316 517.53076 520.51959 526.49719 529.48596 535.46356 541.44116 544.42999 550.40759 553.39636 559.37396 565.35156 617.90198 623.87958 626.86841 632.84601 681.03699"
             y="86.675003"
             sodipodi:role="line"
             id="tspan2991">7[-0.61,0.61,0.51][-0.61,0.61,0.51]0.00[-0.61,0.61,0.51][-0.61,0.61,0.51]0.000</tspan><tspan
             x="0 45.794998 49.776081 55.753681 58.742481 64.720085 70.697685 73.686485 79.664085 82.652878 88.630478 94.608078 97.596878 103.57448 106.56328 112.54088 118.51848 167.021 171.00208 176.97968 179.96848 185.94608 191.92368 194.91248 200.89008 203.87888 209.85648 215.83408 218.82288 224.80048 227.78928 233.76688 239.74448 283.358 289.3356 292.3244 298.302 351.198 355.17908 361.15668 364.14548 370.12308 376.10068 379.08948 385.06708 388.05588 394.03348 400.01108 402.99988 408.97748 411.96628 417.94388 423.92148 490.638 494.61908 500.59668 503.58548 509.56308 515.54071 518.52948 524.50708 527.49591 533.47351 539.45111 542.43988 548.41748 551.40631 557.38391 563.36151 617.901 623.8786 626.86737 632.84497 681.03699"
             y="101.12"
             sodipodi:role="line"
             id="tspan2993">8[0.37,0.78,0.51][0.37,0.78,0.51]0.00[0.37,0.78,0.51][0.37,0.78,0.51]0.001</tspan><tspan
             x="0 45.794998 49.776081 55.753681 58.742481 64.720085 70.697685 73.686485 79.664085 82.652878 88.630478 94.608078 97.596878 103.57448 106.56328 112.54088 118.51848 167.021 171.00208 176.97968 179.96848 185.94608 191.92368 194.91248 200.89008 203.87888 209.85648 215.83408 218.82288 224.80048 227.78928 233.76688 239.74448 283.358 289.3356 292.3244 298.302 351.198 355.17908 361.15668 364.14548 370.12308 376.10068 379.08948 385.06708 388.05588 394.03348 400.01108 402.99988 408.97748 411.96628 417.94388 423.92148 490.638 494.61908 500.59668 503.58548 509.56308 515.54071 518.52948 524.50708 527.49591 533.47351 539.45111 542.43988 548.41748 551.40631 557.38391 563.36151 617.901 623.8786 626.86737 632.84497 681.03699"
             y="115.566"
             sodipodi:role="line"
             id="tspan2995">9[0.55,0.66,0.51][0.55,0.66,0.51]0.00[0.55,0.66,0.51][0.55,0.66,0.51]0.001</tspan><tspan
             x="-2.9890001 2.9886 43.803654 47.784733 51.765816 57.743416 60.732216 66.709816 72.687416 75.676216 81.653816 84.642616 90.620216 96.597816 99.586617 105.56422 108.55302 114.53062 120.50822 165.03101 169.01208 172.99316 178.97076 181.95956 187.93716 193.91476 196.90356 202.88116 205.86996 211.84756 217.82516 220.81396 226.79156 229.78036 235.75797 241.73557 283.358 289.3356 292.3244 298.302 349.207 353.18808 357.16916 363.14676 366.13556 372.11316 378.09076 381.07956 387.05716 390.04596 396.02356 402.00116 404.98996 410.96756 413.95636 419.93396 425.91156 488.647 492.62808 496.60916 502.58676 505.57556 511.55316 517.53076 520.51959 526.49719 529.48596 535.46356 541.44116 544.42999 550.40759 553.39636 559.37396 565.35156 617.901 623.8786 626.86737 632.84497 681.03699"
             y="130.01199"
             sodipodi:role="line"
             id="tspan2997">10[-0.54,0.38,0.75][-0.54,0.38,0.75]0.00[-0.54,0.38,0.75][-0.54,0.38,0.75]0.000</tspan></text>
        <g
           id="g3001">
          <path
             d="m 466.583,-689.379 h 728.504"
             style="fill:none;stroke:#000000;stroke-width:0.9564;stroke-linecap:butt;stroke-linejoin:miter;stroke-miterlimit:10;stroke-dasharray:none;stroke-opacity:1"
             id="path3003" />
        </g>
        <text
           transform="matrix(1,0,0,-1,472.56,-702.331)"
           style="font-variant:normal;font-weight:normal;font-size:6.9738px;font-family:'Times New Roman';-inkscape-font-specification:TimesNewRomanPSMT;writing-mode:lr-tb;fill:#000000;fill-opacity:1;fill-rule:nonzero;stroke:none"
           id="text3007"><tspan
             x="0"
             y="0"
             id="tspan3005">a</tspan></text>
        <text
           transform="matrix(1,0,0,-1,476.154,-705.947)"
           style="font-variant:normal;font-weight:normal;font-size:9.9626px;font-family:'Times New Roman';-inkscape-font-specification:TimesNewRomanPSMT;writing-mode:lr-tb;fill:#000000;fill-opacity:1;fill-rule:nonzero;stroke:none"
           id="text3011"><tspan
             x="0 5.2502904 12.443288 15.760833 18.530436 22.953831 27.935131 30.704733 35.128128 39.551521 42.321125 47.302425 54.774376 58.091919 60.861523 65.842827 70.26622 75.526474 80.507774 84.931168 90.191422 94.614815 97.932358 102.35575 106.77914 109.54875 114.53005 120.33825 123.65579 126.42539 131.40669 135.83009 141.09035 144.40788 150.49504 153.81258 159.89973 165.70793 170.68922 175.11263 178.98807 183.96938"
             y="0"
             sodipodi:role="line"
             id="tspan3009">:Orientaciónfinaldelefectorfinal(E-E)desde</tspan></text>
        <text
           transform="matrix(1,0,0,-1,667.015,-705.947)"
           style="font-style:italic;font-variant:normal;font-weight:normal;font-size:9.9626px;font-family:CMSY10;-inkscape-font-specification:CMSY10;writing-mode:lr-tb;fill:#000000;fill-opacity:1;fill-rule:nonzero;stroke:none"
           id="text3015"><tspan
             x="0"
             y="0"
             id="tspan3013">{</tspan></text>
        <text
           transform="matrix(1,0,0,-1,671.997,-705.947)"
           style="font-variant:normal;font-weight:normal;font-size:9.9626px;font-family:CMR10;-inkscape-font-specification:CMR10;writing-mode:lr-tb;fill:#000000;fill-opacity:1;fill-rule:nonzero;stroke:none"
           id="text3019"><tspan
             x="0"
             y="0"
             id="tspan3017">5</tspan></text>
        <text
           transform="matrix(1,0,0,-1,676.978,-705.947)"
           style="font-style:italic;font-variant:normal;font-weight:normal;font-size:9.9626px;font-family:CMSY10;-inkscape-font-specification:CMSY10;writing-mode:lr-tb;fill:#000000;fill-opacity:1;fill-rule:nonzero;stroke:none"
           id="text3023"><tspan
             x="0"
             y="0"
             id="tspan3021">}</tspan></text>
        <text
           transform="matrix(1,0,0,-1,684.45,-705.947)"
           style="font-variant:normal;font-weight:normal;font-size:9.9626px;font-family:'Times New Roman';-inkscape-font-specification:TimesNewRomanPSMT;writing-mode:lr-tb;fill:#000000;fill-opacity:1;fill-rule:nonzero;stroke:none"
           id="text3027"><tspan
             x="0 4.4233942 11.885382 16.866682 20.184227 24.607622 29.588923 34.570221 38.445675 41.215275 45.638672 48.408272 53.389572 58.370872 62.79427 70.545174 73.314774 77.738167 82.719467 85.489067 90.470367"
             y="0"
             sodipodi:role="line"
             id="tspan3025">enpreposicionamiento.</tspan></text>
        <text
           transform="matrix(1,0,0,-1,779.898,-702.331)"
           style="font-variant:normal;font-weight:normal;font-size:6.9738px;font-family:'Times New Roman';-inkscape-font-specification:TimesNewRomanPSMT;writing-mode:lr-tb;fill:#000000;fill-opacity:1;fill-rule:nonzero;stroke:none"
           id="text3031"><tspan
             x="0"
             y="0"
             id="tspan3029">b</tspan></text>
        <text
           transform="matrix(1,0,0,-1,783.883,-705.947)"
           style="font-variant:normal;font-weight:normal;font-size:9.9626px;font-family:'Times New Roman';-inkscape-font-specification:TimesNewRomanPSMT;writing-mode:lr-tb;fill:#000000;fill-opacity:1;fill-rule:nonzero;stroke:none"
           id="text3035"><tspan
             x="0 5.2502904 12.443288 15.760833 18.530436 22.953831 27.935131 30.704733 35.128128 39.551521 42.321125 47.302425 54.774376 59.197769 66.669716 71.651016 76.632317 80.507774 85.489067 90.470367 94.345825 97.115425 101.53882 104.30842 109.28972 114.27102 118.69442 126.44532 129.21492 133.63832 138.61961 141.38922 146.37051"
             y="0"
             sodipodi:role="line"
             id="tspan3033">:Orientaciónenposposicionamiento.</tspan></text>
      </g>
    </g>
  </g>
</svg>
