<?xml version="1.0" encoding="UTF-8" standalone="no"?>
<svg
   xmlns:dc="http://purl.org/dc/elements/1.1/"
   xmlns:cc="http://creativecommons.org/ns#"
   xmlns:rdf="http://www.w3.org/1999/02/22-rdf-syntax-ns#"
   xmlns:svg="http://www.w3.org/2000/svg"
   xmlns="http://www.w3.org/2000/svg"
   xmlns:sodipodi="http://sodipodi.sourceforge.net/DTD/sodipodi-0.dtd"
   xmlns:inkscape="http://www.inkscape.org/namespaces/inkscape"
   width="137.1727mm"
   height="92.925194mm"
   viewBox="0 0 137.1727 92.925194"
   version="1.1"
   id="svg8"
   inkscape:version="1.0.2-2 (e86c870879, 2021-01-15)"
   sodipodi:docname="numeroMujeres40_64años_examenClinicoMama_2012-2016.svg">
  <defs
     id="defs2">
    <clipPath
       clipPathUnits="userSpaceOnUse"
       id="clipPath28">
      <path
         d="M 0,841.89 H 581.102 V 0 H 0 Z"
         id="path26" />
    </clipPath>
    <clipPath
       clipPathUnits="userSpaceOnUse"
       id="clipPath36">
      <path
         d="m 356.453,801.713 33.941,-32.89 h 1.271 l -33.941,32.89 z m -4.015,0 33.94,-32.89 h 1.272 l -33.94,32.89 z m -4.014,0 33.941,-32.89 h 1.272 l -33.941,32.89 z m -4.014,0 33.941,-32.89 h 1.271 l -33.941,32.89 z m -4.015,0 33.94,-32.89 h 1.272 l -33.941,32.89 z m -4.015,0 33.941,-32.89 h 1.272 l -33.941,32.89 z m -4.014,0 33.94,-32.89 h 1.273 l -33.94,32.89 z m -4.014,0 33.941,-32.89 h 1.27 l -33.939,32.89 z m -4.014,0 33.94,-32.89 h 1.272 l -33.941,32.89 z m -4.015,0 33.94,-32.89 h 1.273 l -33.941,32.89 z m -4.014,0 33.94,-32.89 h 1.272 l -33.941,32.89 z m -4.013,0 33.939,-32.89 h 1.271 l -33.939,32.89 z m -4.015,0 33.939,-32.89 h 1.273 l -33.942,32.89 z m -4.015,0 33.94,-32.89 h 1.272 l -33.941,32.89 z m -4.014,0 33.941,-32.89 h 1.271 l -33.941,32.89 z m -4.015,0 33.941,-32.89 h 1.271 l -33.941,32.89 z m -4.013,0 33.94,-32.89 h 1.271 l -33.94,32.89 z m -4.015,0 33.941,-32.89 h 1.271 l -33.941,32.89 z m -4.014,0 33.941,-32.89 h 1.27 l -33.94,32.89 z m -4.015,0 33.941,-32.89 h 1.271 l -33.94,32.89 z m -4.014,0 33.94,-32.89 h 1.272 l -33.94,32.89 z m -4.014,0 33.94,-32.89 h 1.271 l -33.94,32.89 z m -4.015,0 33.941,-32.89 h 1.271 l -33.94,32.89 z m -4.014,0 33.94,-32.89 h 1.272 l -33.941,32.89 z m -4.015,0 33.941,-32.89 h 1.271 l -33.941,32.89 z m -4.014,0 33.94,-32.89 h 1.273 l -33.94,32.89 z m -4.014,0 33.94,-32.89 h 1.271 l -33.939,32.89 z m -4.014,0 33.94,-32.89 h 1.272 l -33.941,32.89 z m -4.016,0 33.941,-32.89 h 1.273 l -33.941,32.89 z m -4.014,0 33.941,-32.89 h 1.272 l -33.942,32.89 z m -4.013,0 33.94,-32.89 h 1.271 l -33.939,32.89 z m -4.016,0 33.94,-32.89 h 1.274 l -33.941,32.89 z m -4.014,0 33.941,-32.89 h 1.272 l -33.941,32.89 z m -4.014,0 33.941,-32.89 h 1.272 l -33.941,32.89 z m -4.015,0 33.94,-32.89 h 1.273 l -33.941,32.89 z m -4.013,0 33.939,-32.89 h 1.272 l -33.94,32.89 z m -4.015,0 33.94,-32.89 h 1.271 l -33.94,32.89 z m -4.014,0 33.94,-32.89 h 1.272 l -33.94,32.89 z m -4.014,0 33.94,-32.89 h 1.271 l -33.941,32.89 z m -4.016,0 33.941,-32.89 h 1.272 l -33.941,32.89 z m -4.013,0 33.94,-32.89 h 1.272 l -33.941,32.89 z m -4.014,0 33.94,-32.89 h 1.27 l -33.939,32.89 z m -4.015,0 33.941,-32.89 h 1.271 l -33.941,32.89 z m -4.015,0 33.941,-32.89 h 1.272 l -33.941,32.89 z m -4.014,0 33.941,-32.89 h 1.271 l -33.94,32.89 z m -4.014,0 33.94,-32.89 h 1.271 l -33.939,32.89 z m -4.014,0 33.939,-32.89 h 1.273 l -33.941,32.89 z m -4.015,0 33.941,-32.89 h 1.271 l -33.94,32.89 z m -4.015,0 33.942,-32.89 h 1.272 l -33.941,32.89 z m -4.014,0 33.941,-32.89 h 1.272 l -33.941,32.89 z m -4.014,0 33.94,-32.89 h 1.272 l -33.94,32.89 z m -4.015,0 33.94,-32.89 h 1.274 l -33.941,32.89 z m -4.014,0 33.941,-32.89 h 1.272 l -33.941,32.89 z m -4.015,0 33.94,-32.89 h 1.273 l -33.941,32.89 z m -4.015,0 33.941,-32.89 h 1.273 l -33.941,32.89 z m -4.012,0 33.94,-32.89 h 1.272 l -33.941,32.89 z m -4.016,0 33.942,-32.89 h 1.271 l -33.94,32.89 z m -4.014,0 33.94,-32.89 h 1.273 l -33.941,32.89 z m -4.014,0 33.94,-32.89 h 1.272 l -33.941,32.89 z m -4.015,0 33.941,-32.89 h 1.272 l -33.941,32.89 z m -4.013,0 33.939,-32.89 h 1.272 l -33.94,32.89 z m -4.015,0 33.941,-32.89 h 1.271 l -33.941,32.89 z m -4.014,0 33.94,-32.89 h 1.272 l -33.941,32.89 z m -4.015,0 33.94,-32.89 h 1.272 l -33.941,32.89 z m -4.013,0 33.939,-32.89 h 1.272 l -33.941,32.89 z m -4.015,0 33.94,-32.89 h 1.271 l -33.94,32.89 z m -4.015,0 33.941,-32.89 h 1.272 l -33.941,32.89 z m -4.013,0 33.941,-32.89 h 1.27 l -33.941,32.89 z m -4.015,0 33.94,-32.89 h 1.271 l -33.94,32.89 z m -4.014,0 33.94,-32.89 h 1.271 l -33.94,32.89 z m -4.016,0 33.941,-32.89 h 1.272 l -33.94,32.89 z m -4.013,0 33.941,-32.89 h 1.271 l -33.94,32.89 z m -4.015,0 33.941,-32.89 h 1.272 l -33.942,32.89 z m -4.014,0 33.941,-32.89 h 1.271 l -33.941,32.89 z m -4.014,0 33.94,-32.89 h 1.272 l -33.939,32.89 z m -2.725,-1.249 32.652,-31.641 h 1.27 l -33.922,32.873 z m 0,-3.89 28.636,-27.751 h 1.273 l -29.909,28.984 z m 0,-3.89 24.622,-23.861 h 1.272 l -25.894,25.092 z m 0,-3.891 20.608,-19.97 h 1.272 l -21.88,21.203 z m 0,-3.889 16.593,-16.081 h 1.272 l -17.865,17.313 z m 0,-3.891 12.578,-12.19 h 1.272 l -13.85,13.422 z m 0,-3.89 8.565,-8.3 h 1.272 l -9.837,9.532 z m 0,-3.891 4.55,-4.409 h 1.272 l -5.822,5.642 z m 0,-3.89 0.535,-0.519 h 1.273 l -1.808,1.753 z"
         id="path34" />
    </clipPath>
    <clipPath
       clipPathUnits="userSpaceOnUse"
       id="clipPath46">
      <path
         d="M 56.665687,801.71313 V 768.82354 H 391.66479 v 32.88959 z"
         id="path44" />
    </clipPath>
    <linearGradient
       x1="0"
       y1="0"
       x2="1"
       y2="0"
       gradientUnits="userSpaceOnUse"
       gradientTransform="matrix(0,-47.760531,395.79242,0,208.81898,802.30725)"
       spreadMethod="pad"
       id="linearGradient58">
      <stop
         style="stop-opacity:1;stop-color:#bcbec0"
         offset="0"
         id="stop48" />
      <stop
         style="stop-opacity:1;stop-color:#bcbec0"
         offset="0.22"
         id="stop50" />
      <stop
         style="stop-opacity:1;stop-color:#e6e7e8"
         offset="0.47"
         id="stop52" />
      <stop
         style="stop-opacity:1;stop-color:#bcbec0"
         offset="0.7"
         id="stop54" />
      <stop
         style="stop-opacity:1;stop-color:#bcbec0"
         offset="1"
         id="stop56" />
    </linearGradient>
    <clipPath
       clipPathUnits="userSpaceOnUse"
       id="clipPath240">
      <path
         d="M 95.828,478.852 H 485.274 V 756.85 H 95.828 Z"
         id="path238" />
    </clipPath>
    <clipPath
       clipPathUnits="userSpaceOnUse"
       id="clipPath348">
      <path
         d="M 91.73,93.634 H 489.372 V 365.85 H 91.73 Z"
         id="path346" />
    </clipPath>
  </defs>
  <sodipodi:namedview
     id="base"
     pagecolor="#ffffff"
     bordercolor="#666666"
     borderopacity="1.0"
     inkscape:pageopacity="0.0"
     inkscape:pageshadow="2"
     inkscape:zoom="1.0213636"
     inkscape:cx="235.60781"
     inkscape:cy="51.663632"
     inkscape:document-units="mm"
     inkscape:current-layer="g18"
     inkscape:document-rotation="0"
     showgrid="false"
     inkscape:window-width="1258"
     inkscape:window-height="1041"
     inkscape:window-x="39"
     inkscape:window-y="9"
     inkscape:window-maximized="0" />
  <metadata
     id="metadata5">
    <rdf:RDF>
      <cc:Work
         rdf:about="">
        <dc:format>image/svg+xml</dc:format>
        <dc:type
           rdf:resource="http://purl.org/dc/dcmitype/StillImage" />
        <dc:title></dc:title>
      </cc:Work>
    </rdf:RDF>
  </metadata>
  <g
     inkscape:label="Capa 1"
     inkscape:groupmode="layer"
     id="layer1"
     transform="translate(181.69664,-119.56065)">
    <g
       id="g18"
       inkscape:label="Analisis situacional de cancer en el Peru 2018"
       transform="matrix(0.35277777,0,0,-0.35277777,-13.384644,266.85406)">
      <g
         id="g310"
         transform="translate(-424.69028,180.21233)">
        <path
           d="M 0,0 H 328.939 V 214.714 H 0 Z"
           style="fill:none;stroke:#7c8080;stroke-width:0.669;stroke-linecap:butt;stroke-linejoin:miter;stroke-miterlimit:10;stroke-dasharray:none;stroke-opacity:1"
           id="path312" />
      </g>
      <g
         id="g314"
         transform="translate(-424.82358,364.79413)">
        <path
           d="M 0,0 H 328.85"
           style="fill:none;stroke:#7c8080;stroke-width:0.669;stroke-linecap:butt;stroke-linejoin:miter;stroke-miterlimit:10;stroke-dasharray:none;stroke-opacity:1"
           id="path316" />
      </g>
      <g
         id="g318"
         transform="translate(-424.64568,333.92633)">
        <path
           d="M 0,0 H 328.85"
           style="fill:none;stroke:#7c8080;stroke-width:0.669;stroke-linecap:butt;stroke-linejoin:miter;stroke-miterlimit:10;stroke-dasharray:none;stroke-opacity:1"
           id="path320" />
      </g>
      <g
         id="g322"
         transform="translate(-424.64568,303.03663)">
        <path
           d="M 0,0 H 328.85"
           style="fill:none;stroke:#7c8080;stroke-width:0.669;stroke-linecap:butt;stroke-linejoin:miter;stroke-miterlimit:10;stroke-dasharray:none;stroke-opacity:1"
           id="path324" />
      </g>
      <g
         id="g326"
         transform="translate(-424.64568,272.16963)">
        <path
           d="M 0,0 H 328.85"
           style="fill:none;stroke:#7c8080;stroke-width:0.669;stroke-linecap:butt;stroke-linejoin:miter;stroke-miterlimit:10;stroke-dasharray:none;stroke-opacity:1"
           id="path328" />
      </g>
      <g
         id="g330"
         transform="translate(-424.26708,210.43333)">
        <path
           d="M 0,0 H 328.85"
           style="fill:none;stroke:#7c8080;stroke-width:0.669;stroke-linecap:butt;stroke-linejoin:miter;stroke-miterlimit:10;stroke-dasharray:none;stroke-opacity:1"
           id="path332" />
      </g>
      <g
         id="g334"
         transform="translate(-424.64568,241.30223)">
        <path
           d="M 0,0 H 328.85"
           style="fill:none;stroke:#7c8080;stroke-width:0.669;stroke-linecap:butt;stroke-linejoin:miter;stroke-miterlimit:10;stroke-dasharray:none;stroke-opacity:1"
           id="path336" />
      </g>
      <g
         id="g338"
         transform="translate(-391.95858,275.95843)">
        <path
           d="m 0,0 66.264,18.52 65.953,32.517 65.641,34.3 66.264,21.417"
           style="fill:none;stroke:#119dd9;stroke-width:0.802;stroke-linecap:butt;stroke-linejoin:miter;stroke-miterlimit:10;stroke-dasharray:none;stroke-opacity:1"
           id="path340" />
      </g>
      <g
         id="g342"
         transform="translate(-573.23798,56.077628)">
        <g
           id="g344"
           clip-path="url(#clipPath348)">
          <g
             id="g350"
             transform="translate(445.4013,328.084)">
            <path
               d="m 0,0 c 0.802,0 1.447,-0.646 1.447,-1.449 0,-0.802 -0.645,-1.449 -1.447,-1.449 -0.802,0 -1.447,0.647 -1.447,1.449 C -1.447,-0.646 -0.802,0 0,0"
               style="fill:#119dd9;fill-opacity:1;fill-rule:evenodd;stroke:none"
               id="path352" />
          </g>
          <g
             id="g354"
             transform="translate(379.1367,306.6662)">
            <path
               d="m 0,0 c 0.802,0 1.447,-0.646 1.447,-1.449 0,-0.802 -0.645,-1.449 -1.447,-1.449 -0.802,0 -1.447,0.647 -1.447,1.449 C -1.447,-0.646 -0.802,0 0,0"
               style="fill:#119dd9;fill-opacity:1;fill-rule:evenodd;stroke:none"
               id="path356" />
          </g>
          <g
             id="g358"
             transform="translate(313.4964,272.3662)">
            <path
               d="m 0,0 c 0.802,0 1.447,-0.646 1.447,-1.449 0,-0.802 -0.645,-1.449 -1.447,-1.449 -0.802,0 -1.447,0.647 -1.447,1.449 C -1.447,-0.646 -0.802,0 0,0"
               style="fill:#119dd9;fill-opacity:1;fill-rule:evenodd;stroke:none"
               id="path360" />
          </g>
          <g
             id="g362"
             transform="translate(247.5436,239.8494)">
            <path
               d="m 0,0 c 0.802,0 1.448,-0.646 1.448,-1.449 0,-0.802 -0.646,-1.449 -1.448,-1.449 -0.779,0 -1.447,0.647 -1.447,1.449 C -1.447,-0.646 -0.779,0 0,0"
               style="fill:#119dd9;fill-opacity:1;fill-rule:evenodd;stroke:none"
               id="path364" />
          </g>
          <g
             id="g366"
             transform="translate(181.2794,221.3288)">
            <path
               d="m 0,0 c 0.802,0 1.447,-0.646 1.447,-1.448 0,-0.803 -0.645,-1.45 -1.447,-1.45 -0.802,0 -1.447,0.647 -1.447,1.45 C -1.447,-0.646 -0.802,0 0,0"
               style="fill:#119dd9;fill-opacity:1;fill-rule:evenodd;stroke:none"
               id="path368" />
          </g>
          <g
             id="g370"
             transform="translate(96.5341,98.438)">
            <path
               d="M 0,0 H 388.034 V 262.608 H 0 Z"
               style="fill:none;stroke:#babcbc;stroke-width:0.802;stroke-linecap:butt;stroke-linejoin:miter;stroke-miterlimit:10;stroke-dasharray:none;stroke-opacity:1"
               id="path372" />
          </g>
        </g>
      </g>
      <text
         transform="scale(0.99953197,-1.0004682)"
         style="font-variant:normal;font-weight:normal;font-stretch:normal;font-size:7.79685px;font-family:'PDKZWU +Calibri';-inkscape-font-specification:Calibri;writing-mode:lr-tb;fill:#000000;fill-opacity:1;fill-rule:nonzero;stroke:none;stroke-width:0.999532"
         id="text400"
         x="-454.79034"
         y="-392.57062"><tspan
           x="-454.79034 -450.88412 -446.97791 -443.07169 -439.16544 -435.25922"
           y="-392.57062"
           sodipodi:role="line"
           id="tspan374"
           style="stroke-width:0.999532">350000</tspan><tspan
           x="-454.78253 -450.87631 -446.97009 -443.06387 -439.15765 -435.25143"
           y="-361.9368"
           sodipodi:role="line"
           id="tspan376"
           style="stroke-width:0.999532">300000</tspan><tspan
           x="-454.77475 -450.86853 -446.96231 -443.05609 -439.14984 -435.24362"
           y="-331.30298"
           sodipodi:role="line"
           id="tspan378"
           style="stroke-width:0.999532">250000</tspan><tspan
           x="-454.76694 -450.86072 -446.9545 -443.04828 -439.14206 -435.23584"
           y="-300.12338"
           sodipodi:role="line"
           id="tspan380"
           style="stroke-width:0.999532">200000</tspan><tspan
           x="-454.75916 -450.85294 -446.94672 -443.0405 -439.13425 -435.22803"
           y="-269.48956"
           sodipodi:role="line"
           id="tspan382"
           style="stroke-width:0.999532">150000</tspan><tspan
           x="-454.75134 -450.84512 -446.9389 -443.03268 -439.12646 -435.22025"
           y="-238.86353"
           sodipodi:role="line"
           id="tspan384"
           style="stroke-width:0.999532">100000</tspan><tspan
           x="-450.84512 -446.9389 -443.03268 -439.12646 -435.22025"
           y="-207.66832"
           sodipodi:role="line"
           id="tspan386"
           style="stroke-width:0.999532">50000</tspan><tspan
           x="-436.35858"
           y="-177.03452"
           id="tspan388"
           style="stroke-width:0.999532">0</tspan><tspan
           x="-139.52475 -135.61853 -131.71231 -127.80608 -126.044 -122.13778 -118.23156"
           y="-384.76596"
           sodipodi:role="line"
           id="tspan390"
           style="stroke-width:0.999532">329 876</tspan><tspan
           x="-204.12164 -200.21542 -196.30919 -192.40297 -190.64088 -186.73466 -182.82845"
           y="-366.38098"
           sodipodi:role="line"
           id="tspan392"
           style="stroke-width:0.999532">295 086</tspan><tspan
           x="-287.0957 -283.18948 -279.28326 -275.37704 -273.61496 -269.70874 -265.80249"
           y="-325.72821"
           sodipodi:role="line"
           id="tspan394"
           style="stroke-width:0.999532">238 672</tspan><tspan
           x="-353.4079 -349.50168 -345.59546 -341.68924 -339.92715 -336.02094 -332.11472"
           y="-295.09439"
           sodipodi:role="line"
           id="tspan396"
           style="stroke-width:0.999532">186 761</tspan><tspan
           x="-403.47928 -399.57306 -395.66684 -391.76062 -389.9985 -386.09232 -382.18607"
           y="-281.17703"
           sodipodi:role="line"
           id="tspan398"
           style="stroke-width:0.999532">157 233</tspan></text>
      <text
         transform="scale(0.99953437,-1.0004658)"
         style="font-variant:normal;font-weight:bold;font-stretch:normal;font-size:8.91065px;font-family:'FDNQAJ +Calibri-Bold';-inkscape-font-specification:Calibri-Bold;writing-mode:lr-tb;fill:#000000;fill-opacity:1;fill-rule:nonzero;stroke:none;stroke-width:0.999534"
         id="text404"
         x="-414.1315"
         y="-403.14252"><tspan
           x="-414.1315 -408.55344 -404.0892 -396.84485 -392.38062 -389.59158 -385.12735 -382.9086 -378.44437 -373.98904 -371.77029 -364.52594 -360.06171 -357.83401 -353.37872 -350.58966 -346.13434 -342.78394 -340.56519 -336.10095 -331.64563 -329.42688 -324.96265 -320.49841 -317.71829 -313.25406 -308.78983 -306.57108 -302.11575 -297.65152 -293.18729 -289.83685 -287.61813 -284.27664 -279.81238 -275.34814 -273.12939 -268.67407 -264.7623 -260.30698 -253.06262 -248.59837 -244.13416 -241.91539 -238.02144 -235.79378 -233.56612 -229.10188 -226.87422 -223.53273 -219.0685 -216.84975 -212.38551 -207.93018 -205.71144 -198.46707 -194.01175 -186.7674 -182.31207 -180.0844 -177.86566 -173.41032 -168.955 -165.62242 -161.15819 -158.92162 -156.70285 -152.23862 -147.7744 -143.31017 -138.84593 -136.0658 -131.60156 -127.13734 -122.67308 -118.20885"
           y="-403.14252"
           sodipodi:role="line"
           id="tspan402"
           style="stroke-width:0.999534">Número de mujeres de 40-64 años con examen clínico de mama. Perú, 2012-2016.</tspan></text>
      <text
         transform="matrix(0,1.0004618,0.99953838,0,0,0)"
         style="font-variant:normal;font-weight:bold;font-stretch:normal;font-size:7.7968px;font-family:'FDNQAJ +Calibri-Bold';-inkscape-font-specification:Calibri-Bold;writing-mode:lr-tb;fill:#000000;fill-opacity:1;fill-rule:nonzero;stroke:none;stroke-width:0.999538"
         id="text408"
         x="249.44142"
         y="-464.79855"><tspan
           x="249.44142 254.45477 258.35318 263.92007 267.82629 270.04056 274.49255 276.16107 280.05945 283.4043 285.07278 291.20889 295.10727 296.77579 300.67419 302.89627 306.80249 309.58594 311.25446 315.15286 318.4899 321.8425 327.96298 329.63931 333.53772 336.87473 341.32669 344.66373"
           y="-464.79855"
           sodipodi:role="line"
           id="tspan406"
           style="stroke-width:0.999538">Número de mujeres examinadas</tspan></text>
      <text
         transform="scale(0.99953197,-1.0004682)"
         style="font-variant:normal;font-weight:bold;font-stretch:normal;font-size:7.79685px;font-family:'FDNQAJ +Calibri-Bold';-inkscape-font-specification:Calibri-Bold;writing-mode:lr-tb;fill:#000000;fill-opacity:1;fill-rule:nonzero;stroke:none;stroke-width:0.999532"
         id="text412"
         x="-265.43182"
         y="-158.1059"><tspan
           x="-265.43182 -260.97202 -257.0658"
           y="-158.1059"
           sodipodi:role="line"
           id="tspan410"
           style="stroke-width:0.999532">Año</tspan></text>
      <text
         transform="scale(0.99953197,-1.0004682)"
         style="font-variant:normal;font-weight:normal;font-stretch:normal;font-size:7.79685px;font-family:'PDKZWU +Calibri';-inkscape-font-specification:Calibri;writing-mode:lr-tb;fill:#000000;fill-opacity:1;fill-rule:nonzero;stroke:none;stroke-width:0.999532"
         id="text416"
         x="-399.0932"
         y="-166.46413"><tspan
           x="-399.0932 -395.18698 -391.28076 -387.37454 -334.48849 -330.58228 -326.67606 -322.76984 -267.09253 -263.18631 -259.28009 -255.37387 -200.81932 -196.9131 -193.00688 -189.10066 -135.09969 -131.19347 -127.28724 -123.38102"
           y="-166.46413"
           sodipodi:role="line"
           id="tspan414"
           style="stroke-width:0.999532">20122013201420152016</tspan></text>
    </g>
  </g>
</svg>
